<?xml version="1.0" encoding="utf-8" standalone="no"?>
<!DOCTYPE svg PUBLIC "-//W3C//DTD SVG 1.1//EN"
  "http://www.w3.org/Graphics/SVG/1.1/DTD/svg11.dtd">
<svg xmlns:xlink="http://www.w3.org/1999/xlink" width="288pt" height="216pt" viewBox="0 0 288 216" xmlns="http://www.w3.org/2000/svg" version="1.1">
 <metadata>
  <rdf:RDF xmlns:dc="http://purl.org/dc/elements/1.1/" xmlns:cc="http://creativecommons.org/ns#" xmlns:rdf="http://www.w3.org/1999/02/22-rdf-syntax-ns#">
   <cc:Work>
    <dc:type rdf:resource="http://purl.org/dc/dcmitype/StillImage"/>
    <dc:date>2026-06-17T02:50:52.595876</dc:date>
    <dc:format>image/svg+xml</dc:format>
    <dc:creator>
     <cc:Agent>
      <dc:title>Matplotlib v3.10.8, https://matplotlib.org/</dc:title>
     </cc:Agent>
    </dc:creator>
   </cc:Work>
  </rdf:RDF>
 </metadata>
 <defs>
  <style type="text/css">*{stroke-linejoin: round; stroke-linecap: butt}</style>
 </defs>
 <g id="figure_1">
  <g id="patch_1">
   <path d="M 0 216 
L 288 216 
L 288 0 
L 0 0 
z
" style="fill: #ffffff"/>
  </g>
  <g id="axes_1">
   <g id="patch_2">
    <path d="M 47.72 174.04 
L 277.2 174.04 
L 277.2 26.88 
L 47.72 26.88 
z
" style="fill: #ffffff"/>
   </g>
   <g id="FillBetweenPolyCollection_1">
    <defs>
     <path id="md21b157359" d="M 58.150909 -179.574917 
L 58.150909 -175.853045 
L 79.012727 -168.237914 
L 99.874545 -142.692633 
L 120.736364 -114.096533 
L 141.598182 -92.472056 
L 162.46 -78.895501 
L 183.321818 -66.76957 
L 204.183636 -59.961768 
L 225.045455 -54.827517 
L 245.907273 -51.711517 
L 266.769091 -48.649091 
L 266.769091 -57.211016 
L 266.769091 -57.211016 
L 245.907273 -60.015959 
L 225.045455 -63.176679 
L 204.183636 -69.231364 
L 183.321818 -77.842462 
L 162.46 -91.232764 
L 141.598182 -107.948206 
L 120.736364 -130.397221 
L 99.874545 -153.652288 
L 79.012727 -174.500157 
L 58.150909 -179.574917 
z
" style="stroke: #529dcb; stroke-opacity: 0.2; stroke-width: 0.2"/>
    </defs>
    <g clip-path="url(#pf248745f73)">
     <use xlink:href="#md21b157359" x="0" y="216" style="fill: #529dcb; fill-opacity: 0.2; stroke: #529dcb; stroke-opacity: 0.2; stroke-width: 0.2"/>
    </g>
   </g>
   <g id="FillBetweenPolyCollection_2">
    <defs>
     <path id="m2c6c8b7460" d="M 58.150909 -179.318789 
L 58.150909 -176.245623 
L 79.012727 -172.648599 
L 99.874545 -148.104977 
L 120.736364 -119.531861 
L 141.598182 -100.750919 
L 162.46 -86.572125 
L 183.321818 -75.234209 
L 204.183636 -66.008054 
L 225.045455 -59.685203 
L 245.907273 -54.931221 
L 266.769091 -51.35734 
L 266.769091 -56.958875 
L 266.769091 -56.958875 
L 245.907273 -61.026219 
L 225.045455 -65.141515 
L 204.183636 -71.781456 
L 183.321818 -81.385461 
L 162.46 -94.335724 
L 141.598182 -110.039577 
L 120.736364 -127.418 
L 99.874545 -154.380214 
L 79.012727 -176.911993 
L 58.150909 -179.318789 
z
" style="stroke: #009944; stroke-opacity: 0.2; stroke-width: 0.2"/>
    </defs>
    <g clip-path="url(#pf248745f73)">
     <use xlink:href="#m2c6c8b7460" x="0" y="216" style="fill: #009944; fill-opacity: 0.2; stroke: #009944; stroke-opacity: 0.2; stroke-width: 0.2"/>
    </g>
   </g>
   <g id="FillBetweenPolyCollection_3">
    <defs>
     <path id="mf06068c3b0" d="M 58.150909 -181.779925 
L 58.150909 -179.106054 
L 79.012727 -169.063245 
L 99.874545 -144.168194 
L 120.736364 -117.262878 
L 141.598182 -99.635487 
L 162.46 -85.700262 
L 183.321818 -75.013352 
L 204.183636 -66.993261 
L 225.045455 -61.702148 
L 245.907273 -57.30894 
L 266.769091 -53.801719 
L 266.769091 -61.746369 
L 266.769091 -61.746369 
L 245.907273 -65.880373 
L 225.045455 -71.857398 
L 204.183636 -79.529077 
L 183.321818 -88.565292 
L 162.46 -101.893659 
L 141.598182 -117.295279 
L 120.736364 -134.5992 
L 99.874545 -156.27024 
L 79.012727 -174.084177 
L 58.150909 -181.779925 
z
" style="stroke: #f3cc4f; stroke-opacity: 0.2; stroke-width: 0.2"/>
    </defs>
    <g clip-path="url(#pf248745f73)">
     <use xlink:href="#mf06068c3b0" x="0" y="216" style="fill: #f3cc4f; fill-opacity: 0.2; stroke: #f3cc4f; stroke-opacity: 0.2; stroke-width: 0.2"/>
    </g>
   </g>
   <g id="FillBetweenPolyCollection_4">
    <defs>
     <path id="ma54a79bd6b" d="M 58.150909 -182.430909 
L 58.150909 -178.45507 
L 79.012727 -172.131209 
L 99.874545 -152.540625 
L 120.736364 -127.214722 
L 141.598182 -106.558809 
L 162.46 -89.610206 
L 183.321818 -80.537086 
L 204.183636 -73.717413 
L 225.045455 -67.794513 
L 245.907273 -62.641187 
L 266.769091 -59.885589 
L 266.769091 -68.352391 
L 266.769091 -68.352391 
L 245.907273 -71.464161 
L 225.045455 -77.636222 
L 204.183636 -84.266762 
L 183.321818 -90.955683 
L 162.46 -100.985624 
L 141.598182 -117.467379 
L 120.736364 -136.927895 
L 99.874545 -157.858692 
L 79.012727 -177.292933 
L 58.150909 -182.430909 
z
" style="stroke: #f18d00; stroke-opacity: 0.2; stroke-width: 0.2"/>
    </defs>
    <g clip-path="url(#pf248745f73)">
     <use xlink:href="#ma54a79bd6b" x="0" y="216" style="fill: #f18d00; fill-opacity: 0.2; stroke: #f18d00; stroke-opacity: 0.2; stroke-width: 0.2"/>
    </g>
   </g>
   <g id="FillBetweenPolyCollection_5">
    <defs>
     <path id="m0d11d0001e" d="M 58.150909 -182.361799 
L 58.150909 -179.479334 
L 79.012727 -171.782388 
L 99.874545 -156.38456 
L 120.736364 -134.280292 
L 141.598182 -114.502552 
L 162.46 -98.491967 
L 183.321818 -86.28622 
L 204.183636 -77.988191 
L 225.045455 -70.822916 
L 245.907273 -66.476066 
L 266.769091 -61.86505 
L 266.769091 -71.148695 
L 266.769091 -71.148695 
L 245.907273 -75.270506 
L 225.045455 -79.929386 
L 204.183636 -88.183011 
L 183.321818 -97.214188 
L 162.46 -110.388223 
L 141.598182 -126.716391 
L 120.736364 -143.780271 
L 99.874545 -161.928882 
L 79.012727 -176.1408 
L 58.150909 -182.361799 
z
" style="stroke: #e60012; stroke-opacity: 0.2; stroke-width: 0.2"/>
    </defs>
    <g clip-path="url(#pf248745f73)">
     <use xlink:href="#m0d11d0001e" x="0" y="216" style="fill: #e60012; fill-opacity: 0.2; stroke: #e60012; stroke-opacity: 0.2; stroke-width: 0.2"/>
    </g>
   </g>
   <g id="matplotlib.axis_1">
    <g id="xtick_1">
     <g id="line2d_1">
      <defs>
       <path id="mcf3c87036e" d="M 0 0 
L 0 3.5 
" style="stroke: #000000; stroke-width: 0.8"/>
      </defs>
      <g>
       <use xlink:href="#mcf3c87036e" x="58.150909" y="174.04" style="stroke: #000000; stroke-width: 0.8"/>
      </g>
     </g>
     <g id="text_1">
      <!-- 0.0 -->
      <g transform="translate(50.199347 188.638438) scale(0.1 -0.1)">
       <defs>
        <path id="DejaVuSans-30" d="M 2034 4250 
Q 1547 4250 1301 3770 
Q 1056 3291 1056 2328 
Q 1056 1369 1301 889 
Q 1547 409 2034 409 
Q 2525 409 2770 889 
Q 3016 1369 3016 2328 
Q 3016 3291 2770 3770 
Q 2525 4250 2034 4250 
z
M 2034 4750 
Q 2819 4750 3233 4129 
Q 3647 3509 3647 2328 
Q 3647 1150 3233 529 
Q 2819 -91 2034 -91 
Q 1250 -91 836 529 
Q 422 1150 422 2328 
Q 422 3509 836 4129 
Q 1250 4750 2034 4750 
z
" transform="scale(0.015625)"/>
        <path id="DejaVuSans-2e" d="M 684 794 
L 1344 794 
L 1344 0 
L 684 0 
L 684 794 
z
" transform="scale(0.015625)"/>
       </defs>
       <use xlink:href="#DejaVuSans-30"/>
       <use xlink:href="#DejaVuSans-2e" transform="translate(63.623047 0)"/>
       <use xlink:href="#DejaVuSans-30" transform="translate(95.410156 0)"/>
      </g>
     </g>
    </g>
    <g id="xtick_2">
     <g id="line2d_2">
      <g>
       <use xlink:href="#mcf3c87036e" x="99.874545" y="174.04" style="stroke: #000000; stroke-width: 0.8"/>
      </g>
     </g>
     <g id="text_2">
      <!-- 0.2 -->
      <g transform="translate(91.922983 188.638438) scale(0.1 -0.1)">
       <defs>
        <path id="DejaVuSans-32" d="M 1228 531 
L 3431 531 
L 3431 0 
L 469 0 
L 469 531 
Q 828 903 1448 1529 
Q 2069 2156 2228 2338 
Q 2531 2678 2651 2914 
Q 2772 3150 2772 3378 
Q 2772 3750 2511 3984 
Q 2250 4219 1831 4219 
Q 1534 4219 1204 4116 
Q 875 4013 500 3803 
L 500 4441 
Q 881 4594 1212 4672 
Q 1544 4750 1819 4750 
Q 2544 4750 2975 4387 
Q 3406 4025 3406 3419 
Q 3406 3131 3298 2873 
Q 3191 2616 2906 2266 
Q 2828 2175 2409 1742 
Q 1991 1309 1228 531 
z
" transform="scale(0.015625)"/>
       </defs>
       <use xlink:href="#DejaVuSans-30"/>
       <use xlink:href="#DejaVuSans-2e" transform="translate(63.623047 0)"/>
       <use xlink:href="#DejaVuSans-32" transform="translate(95.410156 0)"/>
      </g>
     </g>
    </g>
    <g id="xtick_3">
     <g id="line2d_3">
      <g>
       <use xlink:href="#mcf3c87036e" x="141.598182" y="174.04" style="stroke: #000000; stroke-width: 0.8"/>
      </g>
     </g>
     <g id="text_3">
      <!-- 0.4 -->
      <g transform="translate(133.646619 188.638438) scale(0.1 -0.1)">
       <defs>
        <path id="DejaVuSans-34" d="M 2419 4116 
L 825 1625 
L 2419 1625 
L 2419 4116 
z
M 2253 4666 
L 3047 4666 
L 3047 1625 
L 3713 1625 
L 3713 1100 
L 3047 1100 
L 3047 0 
L 2419 0 
L 2419 1100 
L 313 1100 
L 313 1709 
L 2253 4666 
z
" transform="scale(0.015625)"/>
       </defs>
       <use xlink:href="#DejaVuSans-30"/>
       <use xlink:href="#DejaVuSans-2e" transform="translate(63.623047 0)"/>
       <use xlink:href="#DejaVuSans-34" transform="translate(95.410156 0)"/>
      </g>
     </g>
    </g>
    <g id="xtick_4">
     <g id="line2d_4">
      <g>
       <use xlink:href="#mcf3c87036e" x="183.321818" y="174.04" style="stroke: #000000; stroke-width: 0.8"/>
      </g>
     </g>
     <g id="text_4">
      <!-- 0.6 -->
      <g transform="translate(175.370256 188.638438) scale(0.1 -0.1)">
       <defs>
        <path id="DejaVuSans-36" d="M 2113 2584 
Q 1688 2584 1439 2293 
Q 1191 2003 1191 1497 
Q 1191 994 1439 701 
Q 1688 409 2113 409 
Q 2538 409 2786 701 
Q 3034 994 3034 1497 
Q 3034 2003 2786 2293 
Q 2538 2584 2113 2584 
z
M 3366 4563 
L 3366 3988 
Q 3128 4100 2886 4159 
Q 2644 4219 2406 4219 
Q 1781 4219 1451 3797 
Q 1122 3375 1075 2522 
Q 1259 2794 1537 2939 
Q 1816 3084 2150 3084 
Q 2853 3084 3261 2657 
Q 3669 2231 3669 1497 
Q 3669 778 3244 343 
Q 2819 -91 2113 -91 
Q 1303 -91 875 529 
Q 447 1150 447 2328 
Q 447 3434 972 4092 
Q 1497 4750 2381 4750 
Q 2619 4750 2861 4703 
Q 3103 4656 3366 4563 
z
" transform="scale(0.015625)"/>
       </defs>
       <use xlink:href="#DejaVuSans-30"/>
       <use xlink:href="#DejaVuSans-2e" transform="translate(63.623047 0)"/>
       <use xlink:href="#DejaVuSans-36" transform="translate(95.410156 0)"/>
      </g>
     </g>
    </g>
    <g id="xtick_5">
     <g id="line2d_5">
      <g>
       <use xlink:href="#mcf3c87036e" x="225.045455" y="174.04" style="stroke: #000000; stroke-width: 0.8"/>
      </g>
     </g>
     <g id="text_5">
      <!-- 0.8 -->
      <g transform="translate(217.093892 188.638438) scale(0.1 -0.1)">
       <defs>
        <path id="DejaVuSans-38" d="M 2034 2216 
Q 1584 2216 1326 1975 
Q 1069 1734 1069 1313 
Q 1069 891 1326 650 
Q 1584 409 2034 409 
Q 2484 409 2743 651 
Q 3003 894 3003 1313 
Q 3003 1734 2745 1975 
Q 2488 2216 2034 2216 
z
M 1403 2484 
Q 997 2584 770 2862 
Q 544 3141 544 3541 
Q 544 4100 942 4425 
Q 1341 4750 2034 4750 
Q 2731 4750 3128 4425 
Q 3525 4100 3525 3541 
Q 3525 3141 3298 2862 
Q 3072 2584 2669 2484 
Q 3125 2378 3379 2068 
Q 3634 1759 3634 1313 
Q 3634 634 3220 271 
Q 2806 -91 2034 -91 
Q 1263 -91 848 271 
Q 434 634 434 1313 
Q 434 1759 690 2068 
Q 947 2378 1403 2484 
z
M 1172 3481 
Q 1172 3119 1398 2916 
Q 1625 2713 2034 2713 
Q 2441 2713 2670 2916 
Q 2900 3119 2900 3481 
Q 2900 3844 2670 4047 
Q 2441 4250 2034 4250 
Q 1625 4250 1398 4047 
Q 1172 3844 1172 3481 
z
" transform="scale(0.015625)"/>
       </defs>
       <use xlink:href="#DejaVuSans-30"/>
       <use xlink:href="#DejaVuSans-2e" transform="translate(63.623047 0)"/>
       <use xlink:href="#DejaVuSans-38" transform="translate(95.410156 0)"/>
      </g>
     </g>
    </g>
    <g id="xtick_6">
     <g id="line2d_6">
      <g>
       <use xlink:href="#mcf3c87036e" x="266.769091" y="174.04" style="stroke: #000000; stroke-width: 0.8"/>
      </g>
     </g>
     <g id="text_6">
      <!-- 1.0 -->
      <g transform="translate(258.817528 188.638438) scale(0.1 -0.1)">
       <defs>
        <path id="DejaVuSans-31" d="M 794 531 
L 1825 531 
L 1825 4091 
L 703 3866 
L 703 4441 
L 1819 4666 
L 2450 4666 
L 2450 531 
L 3481 531 
L 3481 0 
L 794 0 
L 794 531 
z
" transform="scale(0.015625)"/>
       </defs>
       <use xlink:href="#DejaVuSans-31"/>
       <use xlink:href="#DejaVuSans-2e" transform="translate(63.623047 0)"/>
       <use xlink:href="#DejaVuSans-30" transform="translate(95.410156 0)"/>
      </g>
     </g>
    </g>
    <g id="text_7">
     <!-- Noise -->
     <g transform="translate(148.589687 202.316563) scale(0.1 -0.1)">
      <defs>
       <path id="DejaVuSans-4e" d="M 628 4666 
L 1478 4666 
L 3547 763 
L 3547 4666 
L 4159 4666 
L 4159 0 
L 3309 0 
L 1241 3903 
L 1241 0 
L 628 0 
L 628 4666 
z
" transform="scale(0.015625)"/>
       <path id="DejaVuSans-6f" d="M 1959 3097 
Q 1497 3097 1228 2736 
Q 959 2375 959 1747 
Q 959 1119 1226 758 
Q 1494 397 1959 397 
Q 2419 397 2687 759 
Q 2956 1122 2956 1747 
Q 2956 2369 2687 2733 
Q 2419 3097 1959 3097 
z
M 1959 3584 
Q 2709 3584 3137 3096 
Q 3566 2609 3566 1747 
Q 3566 888 3137 398 
Q 2709 -91 1959 -91 
Q 1206 -91 779 398 
Q 353 888 353 1747 
Q 353 2609 779 3096 
Q 1206 3584 1959 3584 
z
" transform="scale(0.015625)"/>
       <path id="DejaVuSans-69" d="M 603 3500 
L 1178 3500 
L 1178 0 
L 603 0 
L 603 3500 
z
M 603 4863 
L 1178 4863 
L 1178 4134 
L 603 4134 
L 603 4863 
z
" transform="scale(0.015625)"/>
       <path id="DejaVuSans-73" d="M 2834 3397 
L 2834 2853 
Q 2591 2978 2328 3040 
Q 2066 3103 1784 3103 
Q 1356 3103 1142 2972 
Q 928 2841 928 2578 
Q 928 2378 1081 2264 
Q 1234 2150 1697 2047 
L 1894 2003 
Q 2506 1872 2764 1633 
Q 3022 1394 3022 966 
Q 3022 478 2636 193 
Q 2250 -91 1575 -91 
Q 1294 -91 989 -36 
Q 684 19 347 128 
L 347 722 
Q 666 556 975 473 
Q 1284 391 1588 391 
Q 1994 391 2212 530 
Q 2431 669 2431 922 
Q 2431 1156 2273 1281 
Q 2116 1406 1581 1522 
L 1381 1569 
Q 847 1681 609 1914 
Q 372 2147 372 2553 
Q 372 3047 722 3315 
Q 1072 3584 1716 3584 
Q 2034 3584 2315 3537 
Q 2597 3491 2834 3397 
z
" transform="scale(0.015625)"/>
       <path id="DejaVuSans-65" d="M 3597 1894 
L 3597 1613 
L 953 1613 
Q 991 1019 1311 708 
Q 1631 397 2203 397 
Q 2534 397 2845 478 
Q 3156 559 3463 722 
L 3463 178 
Q 3153 47 2828 -22 
Q 2503 -91 2169 -91 
Q 1331 -91 842 396 
Q 353 884 353 1716 
Q 353 2575 817 3079 
Q 1281 3584 2069 3584 
Q 2775 3584 3186 3129 
Q 3597 2675 3597 1894 
z
M 3022 2063 
Q 3016 2534 2758 2815 
Q 2500 3097 2075 3097 
Q 1594 3097 1305 2825 
Q 1016 2553 972 2059 
L 3022 2063 
z
" transform="scale(0.015625)"/>
      </defs>
      <use xlink:href="#DejaVuSans-4e"/>
      <use xlink:href="#DejaVuSans-6f" transform="translate(74.804688 0)"/>
      <use xlink:href="#DejaVuSans-69" transform="translate(135.986328 0)"/>
      <use xlink:href="#DejaVuSans-73" transform="translate(163.769531 0)"/>
      <use xlink:href="#DejaVuSans-65" transform="translate(215.869141 0)"/>
     </g>
    </g>
   </g>
   <g id="matplotlib.axis_2">
    <g id="ytick_1">
     <g id="line2d_7">
      <defs>
       <path id="m6a28cbbf10" d="M 0 0 
L -3.5 0 
" style="stroke: #000000; stroke-width: 0.8"/>
      </defs>
      <g>
       <use xlink:href="#m6a28cbbf10" x="47.72" y="163.956874" style="stroke: #000000; stroke-width: 0.8"/>
      </g>
     </g>
     <g id="text_8">
      <!-- 0.2 -->
      <g transform="translate(24.816875 167.756093) scale(0.1 -0.1)">
       <use xlink:href="#DejaVuSans-30"/>
       <use xlink:href="#DejaVuSans-2e" transform="translate(63.623047 0)"/>
       <use xlink:href="#DejaVuSans-32" transform="translate(95.410156 0)"/>
      </g>
     </g>
    </g>
    <g id="ytick_2">
     <g id="line2d_8">
      <g>
       <use xlink:href="#m6a28cbbf10" x="47.72" y="124.659148" style="stroke: #000000; stroke-width: 0.8"/>
      </g>
     </g>
     <g id="text_9">
      <!-- 0.4 -->
      <g transform="translate(24.816875 128.458366) scale(0.1 -0.1)">
       <use xlink:href="#DejaVuSans-30"/>
       <use xlink:href="#DejaVuSans-2e" transform="translate(63.623047 0)"/>
       <use xlink:href="#DejaVuSans-34" transform="translate(95.410156 0)"/>
      </g>
     </g>
    </g>
    <g id="ytick_3">
     <g id="line2d_9">
      <g>
       <use xlink:href="#m6a28cbbf10" x="47.72" y="85.361421" style="stroke: #000000; stroke-width: 0.8"/>
      </g>
     </g>
     <g id="text_10">
      <!-- 0.6 -->
      <g transform="translate(24.816875 89.16064) scale(0.1 -0.1)">
       <use xlink:href="#DejaVuSans-30"/>
       <use xlink:href="#DejaVuSans-2e" transform="translate(63.623047 0)"/>
       <use xlink:href="#DejaVuSans-36" transform="translate(95.410156 0)"/>
      </g>
     </g>
    </g>
    <g id="ytick_4">
     <g id="line2d_10">
      <g>
       <use xlink:href="#m6a28cbbf10" x="47.72" y="46.063694" style="stroke: #000000; stroke-width: 0.8"/>
      </g>
     </g>
     <g id="text_11">
      <!-- 0.8 -->
      <g transform="translate(24.816875 49.862913) scale(0.1 -0.1)">
       <use xlink:href="#DejaVuSans-30"/>
       <use xlink:href="#DejaVuSans-2e" transform="translate(63.623047 0)"/>
       <use xlink:href="#DejaVuSans-38" transform="translate(95.410156 0)"/>
      </g>
     </g>
    </g>
    <g id="text_12">
     <!-- Accuracy -->
     <g transform="translate(18.737187 123.288125) rotate(-90) scale(0.1 -0.1)">
      <defs>
       <path id="DejaVuSans-41" d="M 2188 4044 
L 1331 1722 
L 3047 1722 
L 2188 4044 
z
M 1831 4666 
L 2547 4666 
L 4325 0 
L 3669 0 
L 3244 1197 
L 1141 1197 
L 716 0 
L 50 0 
L 1831 4666 
z
" transform="scale(0.015625)"/>
       <path id="DejaVuSans-63" d="M 3122 3366 
L 3122 2828 
Q 2878 2963 2633 3030 
Q 2388 3097 2138 3097 
Q 1578 3097 1268 2742 
Q 959 2388 959 1747 
Q 959 1106 1268 751 
Q 1578 397 2138 397 
Q 2388 397 2633 464 
Q 2878 531 3122 666 
L 3122 134 
Q 2881 22 2623 -34 
Q 2366 -91 2075 -91 
Q 1284 -91 818 406 
Q 353 903 353 1747 
Q 353 2603 823 3093 
Q 1294 3584 2113 3584 
Q 2378 3584 2631 3529 
Q 2884 3475 3122 3366 
z
" transform="scale(0.015625)"/>
       <path id="DejaVuSans-75" d="M 544 1381 
L 544 3500 
L 1119 3500 
L 1119 1403 
Q 1119 906 1312 657 
Q 1506 409 1894 409 
Q 2359 409 2629 706 
Q 2900 1003 2900 1516 
L 2900 3500 
L 3475 3500 
L 3475 0 
L 2900 0 
L 2900 538 
Q 2691 219 2414 64 
Q 2138 -91 1772 -91 
Q 1169 -91 856 284 
Q 544 659 544 1381 
z
M 1991 3584 
L 1991 3584 
z
" transform="scale(0.015625)"/>
       <path id="DejaVuSans-72" d="M 2631 2963 
Q 2534 3019 2420 3045 
Q 2306 3072 2169 3072 
Q 1681 3072 1420 2755 
Q 1159 2438 1159 1844 
L 1159 0 
L 581 0 
L 581 3500 
L 1159 3500 
L 1159 2956 
Q 1341 3275 1631 3429 
Q 1922 3584 2338 3584 
Q 2397 3584 2469 3576 
Q 2541 3569 2628 3553 
L 2631 2963 
z
" transform="scale(0.015625)"/>
       <path id="DejaVuSans-61" d="M 2194 1759 
Q 1497 1759 1228 1600 
Q 959 1441 959 1056 
Q 959 750 1161 570 
Q 1363 391 1709 391 
Q 2188 391 2477 730 
Q 2766 1069 2766 1631 
L 2766 1759 
L 2194 1759 
z
M 3341 1997 
L 3341 0 
L 2766 0 
L 2766 531 
Q 2569 213 2275 61 
Q 1981 -91 1556 -91 
Q 1019 -91 701 211 
Q 384 513 384 1019 
Q 384 1609 779 1909 
Q 1175 2209 1959 2209 
L 2766 2209 
L 2766 2266 
Q 2766 2663 2505 2880 
Q 2244 3097 1772 3097 
Q 1472 3097 1187 3025 
Q 903 2953 641 2809 
L 641 3341 
Q 956 3463 1253 3523 
Q 1550 3584 1831 3584 
Q 2591 3584 2966 3190 
Q 3341 2797 3341 1997 
z
" transform="scale(0.015625)"/>
       <path id="DejaVuSans-79" d="M 2059 -325 
Q 1816 -950 1584 -1140 
Q 1353 -1331 966 -1331 
L 506 -1331 
L 506 -850 
L 844 -850 
Q 1081 -850 1212 -737 
Q 1344 -625 1503 -206 
L 1606 56 
L 191 3500 
L 800 3500 
L 1894 763 
L 2988 3500 
L 3597 3500 
L 2059 -325 
z
" transform="scale(0.015625)"/>
      </defs>
      <use xlink:href="#DejaVuSans-41"/>
      <use xlink:href="#DejaVuSans-63" transform="translate(66.658203 0)"/>
      <use xlink:href="#DejaVuSans-63" transform="translate(121.638672 0)"/>
      <use xlink:href="#DejaVuSans-75" transform="translate(176.619141 0)"/>
      <use xlink:href="#DejaVuSans-72" transform="translate(239.998047 0)"/>
      <use xlink:href="#DejaVuSans-61" transform="translate(281.111328 0)"/>
      <use xlink:href="#DejaVuSans-63" transform="translate(342.390625 0)"/>
      <use xlink:href="#DejaVuSans-79" transform="translate(397.371094 0)"/>
     </g>
    </g>
   </g>
   <g id="line2d_11">
    <path d="M 58.150909 38.286019 
L 79.012727 44.630965 
L 99.874545 67.827539 
L 120.736364 93.753123 
L 141.598182 115.789869 
L 162.46 130.935868 
L 183.321818 143.693984 
L 204.183636 151.403434 
L 225.045455 156.997902 
L 245.907273 160.136262 
L 266.769091 163.069946 
" clip-path="url(#pf248745f73)" style="fill: none; stroke: #529dcb; stroke-width: 0.5; stroke-linecap: square"/>
    <defs>
     <path id="mb86a99d75d" d="M 0 1 
C 0.265203 1 0.51958 0.894634 0.707107 0.707107 
C 0.894634 0.51958 1 0.265203 1 0 
C 1 -0.265203 0.894634 -0.51958 0.707107 -0.707107 
C 0.51958 -0.894634 0.265203 -1 0 -1 
C -0.265203 -1 -0.51958 -0.894634 -0.707107 -0.707107 
C -0.894634 -0.51958 -1 -0.265203 -1 0 
C -1 0.265203 -0.894634 0.51958 -0.707107 0.707107 
C -0.51958 0.894634 -0.265203 1 0 1 
z
"/>
    </defs>
    <g clip-path="url(#pf248745f73)">
     <use xlink:href="#mb86a99d75d" x="58.150909" y="38.286019" style="fill: #529dcb"/>
     <use xlink:href="#mb86a99d75d" x="79.012727" y="44.630965" style="fill: #529dcb"/>
     <use xlink:href="#mb86a99d75d" x="99.874545" y="67.827539" style="fill: #529dcb"/>
     <use xlink:href="#mb86a99d75d" x="120.736364" y="93.753123" style="fill: #529dcb"/>
     <use xlink:href="#mb86a99d75d" x="141.598182" y="115.789869" style="fill: #529dcb"/>
     <use xlink:href="#mb86a99d75d" x="162.46" y="130.935868" style="fill: #529dcb"/>
     <use xlink:href="#mb86a99d75d" x="183.321818" y="143.693984" style="fill: #529dcb"/>
     <use xlink:href="#mb86a99d75d" x="204.183636" y="151.403434" style="fill: #529dcb"/>
     <use xlink:href="#mb86a99d75d" x="225.045455" y="156.997902" style="fill: #529dcb"/>
     <use xlink:href="#mb86a99d75d" x="245.907273" y="160.136262" style="fill: #529dcb"/>
     <use xlink:href="#mb86a99d75d" x="266.769091" y="163.069946" style="fill: #529dcb"/>
    </g>
   </g>
   <g id="line2d_12">
    <path d="M 58.150909 38.217794 
L 79.012727 41.219704 
L 99.874545 64.757405 
L 120.736364 92.525069 
L 141.598182 110.604752 
L 162.46 125.546075 
L 183.321818 137.690165 
L 204.183636 147.105245 
L 225.045455 153.586641 
L 245.907273 158.02128 
L 266.769091 161.841892 
" clip-path="url(#pf248745f73)" style="fill: none; stroke: #009944; stroke-width: 0.5; stroke-linecap: square"/>
    <defs>
     <path id="m9f34c6f5b5" d="M 0 1 
C 0.265203 1 0.51958 0.894634 0.707107 0.707107 
C 0.894634 0.51958 1 0.265203 1 0 
C 1 -0.265203 0.894634 -0.51958 0.707107 -0.707107 
C 0.51958 -0.894634 0.265203 -1 0 -1 
C -0.265203 -1 -0.51958 -0.894634 -0.707107 -0.707107 
C -0.894634 -0.51958 -1 -0.265203 -1 0 
C -1 0.265203 -0.894634 0.51958 -0.707107 0.707107 
C -0.51958 0.894634 -0.265203 1 0 1 
z
"/>
    </defs>
    <g clip-path="url(#pf248745f73)">
     <use xlink:href="#m9f34c6f5b5" x="58.150909" y="38.217794" style="fill: #009944"/>
     <use xlink:href="#m9f34c6f5b5" x="79.012727" y="41.219704" style="fill: #009944"/>
     <use xlink:href="#m9f34c6f5b5" x="99.874545" y="64.757405" style="fill: #009944"/>
     <use xlink:href="#m9f34c6f5b5" x="120.736364" y="92.525069" style="fill: #009944"/>
     <use xlink:href="#m9f34c6f5b5" x="141.598182" y="110.604752" style="fill: #009944"/>
     <use xlink:href="#m9f34c6f5b5" x="162.46" y="125.546075" style="fill: #009944"/>
     <use xlink:href="#m9f34c6f5b5" x="183.321818" y="137.690165" style="fill: #009944"/>
     <use xlink:href="#m9f34c6f5b5" x="204.183636" y="147.105245" style="fill: #009944"/>
     <use xlink:href="#m9f34c6f5b5" x="225.045455" y="153.586641" style="fill: #009944"/>
     <use xlink:href="#m9f34c6f5b5" x="245.907273" y="158.02128" style="fill: #009944"/>
     <use xlink:href="#m9f34c6f5b5" x="266.769091" y="161.841892" style="fill: #009944"/>
    </g>
   </g>
   <g id="line2d_13">
    <path d="M 58.150909 35.55701 
L 79.012727 44.426289 
L 99.874545 65.780783 
L 120.736364 90.068961 
L 141.598182 107.534617 
L 162.46 122.20304 
L 183.321818 134.210678 
L 204.183636 142.738831 
L 225.045455 149.220227 
L 245.907273 154.405343 
L 266.769091 158.225956 
" clip-path="url(#pf248745f73)" style="fill: none; stroke: #f3cc4f; stroke-width: 0.5; stroke-linecap: square"/>
    <defs>
     <path id="mf3db9c9e90" d="M 0 1 
C 0.265203 1 0.51958 0.894634 0.707107 0.707107 
C 0.894634 0.51958 1 0.265203 1 0 
C 1 -0.265203 0.894634 -0.51958 0.707107 -0.707107 
C 0.51958 -0.894634 0.265203 -1 0 -1 
C -0.265203 -1 -0.51958 -0.894634 -0.707107 -0.707107 
C -0.894634 -0.51958 -1 -0.265203 -1 0 
C -1 0.265203 -0.894634 0.51958 -0.707107 0.707107 
C -0.51958 0.894634 -0.265203 1 0 1 
z
"/>
    </defs>
    <g clip-path="url(#pf248745f73)">
     <use xlink:href="#mf3db9c9e90" x="58.150909" y="35.55701" style="fill: #f3cc4f"/>
     <use xlink:href="#mf3db9c9e90" x="79.012727" y="44.426289" style="fill: #f3cc4f"/>
     <use xlink:href="#mf3db9c9e90" x="99.874545" y="65.780783" style="fill: #f3cc4f"/>
     <use xlink:href="#mf3db9c9e90" x="120.736364" y="90.068961" style="fill: #f3cc4f"/>
     <use xlink:href="#mf3db9c9e90" x="141.598182" y="107.534617" style="fill: #f3cc4f"/>
     <use xlink:href="#mf3db9c9e90" x="162.46" y="122.20304" style="fill: #f3cc4f"/>
     <use xlink:href="#mf3db9c9e90" x="183.321818" y="134.210678" style="fill: #f3cc4f"/>
     <use xlink:href="#mf3db9c9e90" x="204.183636" y="142.738831" style="fill: #f3cc4f"/>
     <use xlink:href="#mf3db9c9e90" x="225.045455" y="149.220227" style="fill: #f3cc4f"/>
     <use xlink:href="#mf3db9c9e90" x="245.907273" y="154.405343" style="fill: #f3cc4f"/>
     <use xlink:href="#mf3db9c9e90" x="266.769091" y="158.225956" style="fill: #f3cc4f"/>
    </g>
   </g>
   <g id="line2d_14">
    <path d="M 58.150909 35.55701 
L 79.012727 41.287929 
L 99.874545 60.800342 
L 120.736364 83.928691 
L 141.598182 103.986906 
L 162.46 120.702085 
L 183.321818 130.253616 
L 204.183636 137.007912 
L 225.045455 143.284633 
L 245.907273 148.947326 
L 266.769091 151.88101 
" clip-path="url(#pf248745f73)" style="fill: none; stroke: #f18d00; stroke-width: 0.5; stroke-linecap: square"/>
    <defs>
     <path id="me9a3490adf" d="M 0 1 
C 0.265203 1 0.51958 0.894634 0.707107 0.707107 
C 0.894634 0.51958 1 0.265203 1 0 
C 1 -0.265203 0.894634 -0.51958 0.707107 -0.707107 
C 0.51958 -0.894634 0.265203 -1 0 -1 
C -0.265203 -1 -0.51958 -0.894634 -0.707107 -0.707107 
C -0.894634 -0.51958 -1 -0.265203 -1 0 
C -1 0.265203 -0.894634 0.51958 -0.707107 0.707107 
C -0.51958 0.894634 -0.265203 1 0 1 
z
"/>
    </defs>
    <g clip-path="url(#pf248745f73)">
     <use xlink:href="#me9a3490adf" x="58.150909" y="35.55701" style="fill: #f18d00"/>
     <use xlink:href="#me9a3490adf" x="79.012727" y="41.287929" style="fill: #f18d00"/>
     <use xlink:href="#me9a3490adf" x="99.874545" y="60.800342" style="fill: #f18d00"/>
     <use xlink:href="#me9a3490adf" x="120.736364" y="83.928691" style="fill: #f18d00"/>
     <use xlink:href="#me9a3490adf" x="141.598182" y="103.986906" style="fill: #f18d00"/>
     <use xlink:href="#me9a3490adf" x="162.46" y="120.702085" style="fill: #f18d00"/>
     <use xlink:href="#me9a3490adf" x="183.321818" y="130.253616" style="fill: #f18d00"/>
     <use xlink:href="#me9a3490adf" x="204.183636" y="137.007912" style="fill: #f18d00"/>
     <use xlink:href="#me9a3490adf" x="225.045455" y="143.284633" style="fill: #f18d00"/>
     <use xlink:href="#me9a3490adf" x="245.907273" y="148.947326" style="fill: #f18d00"/>
     <use xlink:href="#me9a3490adf" x="266.769091" y="151.88101" style="fill: #f18d00"/>
    </g>
   </g>
   <g id="line2d_15">
    <path d="M 58.150909 35.079434 
L 79.012727 42.038406 
L 99.874545 56.843279 
L 120.736364 76.969719 
L 141.598182 95.390528 
L 162.46 111.559905 
L 183.321818 124.249796 
L 204.183636 132.914399 
L 225.045455 140.623849 
L 245.907273 145.126714 
L 266.769091 149.493128 
" clip-path="url(#pf248745f73)" style="fill: none; stroke: #e60012; stroke-width: 0.5; stroke-linecap: square"/>
    <defs>
     <path id="ma90b6a49d6" d="M 0 1 
C 0.265203 1 0.51958 0.894634 0.707107 0.707107 
C 0.894634 0.51958 1 0.265203 1 0 
C 1 -0.265203 0.894634 -0.51958 0.707107 -0.707107 
C 0.51958 -0.894634 0.265203 -1 0 -1 
C -0.265203 -1 -0.51958 -0.894634 -0.707107 -0.707107 
C -0.894634 -0.51958 -1 -0.265203 -1 0 
C -1 0.265203 -0.894634 0.51958 -0.707107 0.707107 
C -0.51958 0.894634 -0.265203 1 0 1 
z
"/>
    </defs>
    <g clip-path="url(#pf248745f73)">
     <use xlink:href="#ma90b6a49d6" x="58.150909" y="35.079434" style="fill: #e60012"/>
     <use xlink:href="#ma90b6a49d6" x="79.012727" y="42.038406" style="fill: #e60012"/>
     <use xlink:href="#ma90b6a49d6" x="99.874545" y="56.843279" style="fill: #e60012"/>
     <use xlink:href="#ma90b6a49d6" x="120.736364" y="76.969719" style="fill: #e60012"/>
     <use xlink:href="#ma90b6a49d6" x="141.598182" y="95.390528" style="fill: #e60012"/>
     <use xlink:href="#ma90b6a49d6" x="162.46" y="111.559905" style="fill: #e60012"/>
     <use xlink:href="#ma90b6a49d6" x="183.321818" y="124.249796" style="fill: #e60012"/>
     <use xlink:href="#ma90b6a49d6" x="204.183636" y="132.914399" style="fill: #e60012"/>
     <use xlink:href="#ma90b6a49d6" x="225.045455" y="140.623849" style="fill: #e60012"/>
     <use xlink:href="#ma90b6a49d6" x="245.907273" y="145.126714" style="fill: #e60012"/>
     <use xlink:href="#ma90b6a49d6" x="266.769091" y="149.493128" style="fill: #e60012"/>
    </g>
   </g>
   <g id="patch_3">
    <path d="M 47.72 174.04 
L 47.72 26.88 
" style="fill: none; stroke: #000000; stroke-width: 0.8; stroke-linejoin: miter; stroke-linecap: square"/>
   </g>
   <g id="patch_4">
    <path d="M 277.2 174.04 
L 277.2 26.88 
" style="fill: none; stroke: #000000; stroke-width: 0.8; stroke-linejoin: miter; stroke-linecap: square"/>
   </g>
   <g id="patch_5">
    <path d="M 47.72 174.04 
L 277.2 174.04 
" style="fill: none; stroke: #000000; stroke-width: 0.8; stroke-linejoin: miter; stroke-linecap: square"/>
   </g>
   <g id="patch_6">
    <path d="M 47.72 26.88 
L 277.2 26.88 
" style="fill: none; stroke: #000000; stroke-width: 0.8; stroke-linejoin: miter; stroke-linecap: square"/>
   </g>
   <g id="text_13">
    <!-- dvs -->
    <g transform="translate(151.974062 20.88) scale(0.12 -0.12)">
     <defs>
      <path id="DejaVuSans-64" d="M 2906 2969 
L 2906 4863 
L 3481 4863 
L 3481 0 
L 2906 0 
L 2906 525 
Q 2725 213 2448 61 
Q 2172 -91 1784 -91 
Q 1150 -91 751 415 
Q 353 922 353 1747 
Q 353 2572 751 3078 
Q 1150 3584 1784 3584 
Q 2172 3584 2448 3432 
Q 2725 3281 2906 2969 
z
M 947 1747 
Q 947 1113 1208 752 
Q 1469 391 1925 391 
Q 2381 391 2643 752 
Q 2906 1113 2906 1747 
Q 2906 2381 2643 2742 
Q 2381 3103 1925 3103 
Q 1469 3103 1208 2742 
Q 947 2381 947 1747 
z
" transform="scale(0.015625)"/>
      <path id="DejaVuSans-76" d="M 191 3500 
L 800 3500 
L 1894 563 
L 2988 3500 
L 3597 3500 
L 2284 0 
L 1503 0 
L 191 3500 
z
" transform="scale(0.015625)"/>
     </defs>
     <use xlink:href="#DejaVuSans-64"/>
     <use xlink:href="#DejaVuSans-76" transform="translate(63.476562 0)"/>
     <use xlink:href="#DejaVuSans-73" transform="translate(122.65625 0)"/>
    </g>
   </g>
   <g id="legend_1">
    <g id="patch_7">
     <path d="M 205.20625 108.270625 
L 270.2 108.270625 
Q 272.2 108.270625 272.2 106.270625 
L 272.2 33.88 
Q 272.2 31.88 270.2 31.88 
L 205.20625 31.88 
Q 203.20625 31.88 203.20625 33.88 
L 203.20625 106.270625 
Q 203.20625 108.270625 205.20625 108.270625 
z
" style="fill: #ffffff; opacity: 0.8; stroke: #cccccc; stroke-linejoin: miter"/>
    </g>
    <g id="line2d_16">
     <path d="M 207.20625 39.978437 
L 217.20625 39.978437 
L 227.20625 39.978437 
" style="fill: none; stroke: #529dcb; stroke-width: 0.5; stroke-linecap: square"/>
     <g>
      <use xlink:href="#mb86a99d75d" x="217.20625" y="39.978437" style="fill: #529dcb"/>
     </g>
    </g>
    <g id="text_14">
     <!-- MOP -->
     <g transform="translate(235.20625 43.478437) scale(0.1 -0.1)">
      <defs>
       <path id="DejaVuSans-4d" d="M 628 4666 
L 1569 4666 
L 2759 1491 
L 3956 4666 
L 4897 4666 
L 4897 0 
L 4281 0 
L 4281 4097 
L 3078 897 
L 2444 897 
L 1241 4097 
L 1241 0 
L 628 0 
L 628 4666 
z
" transform="scale(0.015625)"/>
       <path id="DejaVuSans-4f" d="M 2522 4238 
Q 1834 4238 1429 3725 
Q 1025 3213 1025 2328 
Q 1025 1447 1429 934 
Q 1834 422 2522 422 
Q 3209 422 3611 934 
Q 4013 1447 4013 2328 
Q 4013 3213 3611 3725 
Q 3209 4238 2522 4238 
z
M 2522 4750 
Q 3503 4750 4090 4092 
Q 4678 3434 4678 2328 
Q 4678 1225 4090 567 
Q 3503 -91 2522 -91 
Q 1538 -91 948 565 
Q 359 1222 359 2328 
Q 359 3434 948 4092 
Q 1538 4750 2522 4750 
z
" transform="scale(0.015625)"/>
       <path id="DejaVuSans-50" d="M 1259 4147 
L 1259 2394 
L 2053 2394 
Q 2494 2394 2734 2622 
Q 2975 2850 2975 3272 
Q 2975 3691 2734 3919 
Q 2494 4147 2053 4147 
L 1259 4147 
z
M 628 4666 
L 2053 4666 
Q 2838 4666 3239 4311 
Q 3641 3956 3641 3272 
Q 3641 2581 3239 2228 
Q 2838 1875 2053 1875 
L 1259 1875 
L 1259 0 
L 628 0 
L 628 4666 
z
" transform="scale(0.015625)"/>
      </defs>
      <use xlink:href="#DejaVuSans-4d"/>
      <use xlink:href="#DejaVuSans-4f" transform="translate(86.279297 0)"/>
      <use xlink:href="#DejaVuSans-50" transform="translate(164.990234 0)"/>
     </g>
    </g>
    <g id="line2d_17">
     <path d="M 207.20625 54.656562 
L 217.20625 54.656562 
L 227.20625 54.656562 
" style="fill: none; stroke: #009944; stroke-width: 0.5; stroke-linecap: square"/>
     <g>
      <use xlink:href="#m9f34c6f5b5" x="217.20625" y="54.656562" style="fill: #009944"/>
     </g>
    </g>
    <g id="text_15">
     <!-- AVE -->
     <g transform="translate(235.20625 58.156562) scale(0.1 -0.1)">
      <defs>
       <path id="DejaVuSans-56" d="M 1831 0 
L 50 4666 
L 709 4666 
L 2188 738 
L 3669 4666 
L 4325 4666 
L 2547 0 
L 1831 0 
z
" transform="scale(0.015625)"/>
       <path id="DejaVuSans-45" d="M 628 4666 
L 3578 4666 
L 3578 4134 
L 1259 4134 
L 1259 2753 
L 3481 2753 
L 3481 2222 
L 1259 2222 
L 1259 531 
L 3634 531 
L 3634 0 
L 628 0 
L 628 4666 
z
" transform="scale(0.015625)"/>
      </defs>
      <use xlink:href="#DejaVuSans-41"/>
      <use xlink:href="#DejaVuSans-56" transform="translate(62.033203 0)"/>
      <use xlink:href="#DejaVuSans-45" transform="translate(130.441406 0)"/>
     </g>
    </g>
    <g id="line2d_18">
     <path d="M 207.20625 69.334687 
L 217.20625 69.334687 
L 227.20625 69.334687 
" style="fill: none; stroke: #f3cc4f; stroke-width: 0.5; stroke-linecap: square"/>
     <g>
      <use xlink:href="#mf3db9c9e90" x="217.20625" y="69.334687" style="fill: #f3cc4f"/>
     </g>
    </g>
    <g id="text_16">
     <!-- Vanilla -->
     <g transform="translate(235.20625 72.834687) scale(0.1 -0.1)">
      <defs>
       <path id="DejaVuSans-6e" d="M 3513 2113 
L 3513 0 
L 2938 0 
L 2938 2094 
Q 2938 2591 2744 2837 
Q 2550 3084 2163 3084 
Q 1697 3084 1428 2787 
Q 1159 2491 1159 1978 
L 1159 0 
L 581 0 
L 581 3500 
L 1159 3500 
L 1159 2956 
Q 1366 3272 1645 3428 
Q 1925 3584 2291 3584 
Q 2894 3584 3203 3211 
Q 3513 2838 3513 2113 
z
" transform="scale(0.015625)"/>
       <path id="DejaVuSans-6c" d="M 603 4863 
L 1178 4863 
L 1178 0 
L 603 0 
L 603 4863 
z
" transform="scale(0.015625)"/>
      </defs>
      <use xlink:href="#DejaVuSans-56"/>
      <use xlink:href="#DejaVuSans-61" transform="translate(60.658203 0)"/>
      <use xlink:href="#DejaVuSans-6e" transform="translate(121.9375 0)"/>
      <use xlink:href="#DejaVuSans-69" transform="translate(185.316406 0)"/>
      <use xlink:href="#DejaVuSans-6c" transform="translate(213.099609 0)"/>
      <use xlink:href="#DejaVuSans-6c" transform="translate(240.882812 0)"/>
      <use xlink:href="#DejaVuSans-61" transform="translate(268.666016 0)"/>
     </g>
    </g>
    <g id="line2d_19">
     <path d="M 207.20625 84.012812 
L 217.20625 84.012812 
L 227.20625 84.012812 
" style="fill: none; stroke: #f18d00; stroke-width: 0.5; stroke-linecap: square"/>
     <g>
      <use xlink:href="#me9a3490adf" x="217.20625" y="84.012812" style="fill: #f18d00"/>
     </g>
    </g>
    <g id="text_17">
     <!-- FRP -->
     <g transform="translate(235.20625 87.512812) scale(0.1 -0.1)">
      <defs>
       <path id="DejaVuSans-46" d="M 628 4666 
L 3309 4666 
L 3309 4134 
L 1259 4134 
L 1259 2759 
L 3109 2759 
L 3109 2228 
L 1259 2228 
L 1259 0 
L 628 0 
L 628 4666 
z
" transform="scale(0.015625)"/>
       <path id="DejaVuSans-52" d="M 2841 2188 
Q 3044 2119 3236 1894 
Q 3428 1669 3622 1275 
L 4263 0 
L 3584 0 
L 2988 1197 
Q 2756 1666 2539 1819 
Q 2322 1972 1947 1972 
L 1259 1972 
L 1259 0 
L 628 0 
L 628 4666 
L 2053 4666 
Q 2853 4666 3247 4331 
Q 3641 3997 3641 3322 
Q 3641 2881 3436 2590 
Q 3231 2300 2841 2188 
z
M 1259 4147 
L 1259 2491 
L 2053 2491 
Q 2509 2491 2742 2702 
Q 2975 2913 2975 3322 
Q 2975 3731 2742 3939 
Q 2509 4147 2053 4147 
L 1259 4147 
z
" transform="scale(0.015625)"/>
      </defs>
      <use xlink:href="#DejaVuSans-46"/>
      <use xlink:href="#DejaVuSans-52" transform="translate(57.519531 0)"/>
      <use xlink:href="#DejaVuSans-50" transform="translate(127.001953 0)"/>
     </g>
    </g>
    <g id="line2d_20">
     <path d="M 207.20625 98.690937 
L 217.20625 98.690937 
L 227.20625 98.690937 
" style="fill: none; stroke: #e60012; stroke-width: 0.5; stroke-linecap: square"/>
     <g>
      <use xlink:href="#ma90b6a49d6" x="217.20625" y="98.690937" style="fill: #e60012"/>
     </g>
    </g>
    <g id="text_18">
     <!-- FRP-E -->
     <g transform="translate(235.20625 102.190937) scale(0.1 -0.1)">
      <defs>
       <path id="DejaVuSans-2d" d="M 313 2009 
L 1997 2009 
L 1997 1497 
L 313 1497 
L 313 2009 
z
" transform="scale(0.015625)"/>
      </defs>
      <use xlink:href="#DejaVuSans-46"/>
      <use xlink:href="#DejaVuSans-52" transform="translate(57.519531 0)"/>
      <use xlink:href="#DejaVuSans-50" transform="translate(127.001953 0)"/>
      <use xlink:href="#DejaVuSans-2d" transform="translate(185.054688 0)"/>
      <use xlink:href="#DejaVuSans-45" transform="translate(221.138672 0)"/>
     </g>
    </g>
   </g>
  </g>
 </g>
 <defs>
  <clipPath id="pf248745f73">
   <rect x="47.72" y="26.88" width="229.48" height="147.16"/>
  </clipPath>
 </defs>
</svg>
