<?xml version="1.0" encoding="utf-8" standalone="no"?>
<!DOCTYPE svg PUBLIC "-//W3C//DTD SVG 1.1//EN"
  "http://www.w3.org/Graphics/SVG/1.1/DTD/svg11.dtd">
<svg xmlns:xlink="http://www.w3.org/1999/xlink" width="360pt" height="295.2pt" viewBox="0 0 360 295.2" xmlns="http://www.w3.org/2000/svg" version="1.1">
 <metadata>
  <rdf:RDF xmlns:dc="http://purl.org/dc/elements/1.1/" xmlns:cc="http://creativecommons.org/ns#" xmlns:rdf="http://www.w3.org/1999/02/22-rdf-syntax-ns#">
   <cc:Work>
    <dc:type rdf:resource="http://purl.org/dc/dcmitype/StillImage"/>
    <dc:date>2026-06-17T16:55:48.872617</dc:date>
    <dc:format>image/svg+xml</dc:format>
    <dc:creator>
     <cc:Agent>
      <dc:title>Matplotlib v3.10.8, https://matplotlib.org/</dc:title>
     </cc:Agent>
    </dc:creator>
   </cc:Work>
  </rdf:RDF>
 </metadata>
 <defs>
  <style type="text/css">*{stroke-linejoin: round; stroke-linecap: butt}</style>
 </defs>
 <g id="figure_1">
  <g id="patch_1">
   <path d="M 0 295.2 
L 360 295.2 
L 360 0 
L 0 0 
z
" style="fill: #ffffff"/>
  </g>
  <g id="axes_1">
   <g id="patch_2">
    <path d="M 49.25 251.8 
L 343.069898 251.8 
L 343.069898 10.8 
L 49.25 10.8 
z
" style="fill: #ffffff"/>
   </g>
   <g id="matplotlib.axis_1">
    <g id="xtick_1">
     <g id="line2d_1">
      <path d="M 50.527133 251.8 
L 50.527133 10.8 
" clip-path="url(#pbbba6d0b84)" style="fill: none; stroke-dasharray: 2.22,0.96; stroke-dashoffset: 0; stroke: #b0b0b0; stroke-opacity: 0.25; stroke-width: 0.6"/>
     </g>
     <g id="line2d_2">
      <defs>
       <path id="m8822e8b1eb" d="M 0 0 
L 0 3.5 
" style="stroke: #000000; stroke-width: 0.8"/>
      </defs>
      <g>
       <use xlink:href="#m8822e8b1eb" x="50.527133" y="251.8" style="stroke: #000000; stroke-width: 0.8"/>
      </g>
     </g>
     <g id="text_1">
      <!-- −0.4 -->
      <g transform="translate(38.385727 266.398438) scale(0.1 -0.1)">
       <defs>
        <path id="DejaVuSans-2212" d="M 678 2272 
L 4684 2272 
L 4684 1741 
L 678 1741 
L 678 2272 
z
" transform="scale(0.015625)"/>
        <path id="DejaVuSans-30" d="M 2034 4250 
Q 1547 4250 1301 3770 
Q 1056 3291 1056 2328 
Q 1056 1369 1301 889 
Q 1547 409 2034 409 
Q 2525 409 2770 889 
Q 3016 1369 3016 2328 
Q 3016 3291 2770 3770 
Q 2525 4250 2034 4250 
z
M 2034 4750 
Q 2819 4750 3233 4129 
Q 3647 3509 3647 2328 
Q 3647 1150 3233 529 
Q 2819 -91 2034 -91 
Q 1250 -91 836 529 
Q 422 1150 422 2328 
Q 422 3509 836 4129 
Q 1250 4750 2034 4750 
z
" transform="scale(0.015625)"/>
        <path id="DejaVuSans-2e" d="M 684 794 
L 1344 794 
L 1344 0 
L 684 0 
L 684 794 
z
" transform="scale(0.015625)"/>
        <path id="DejaVuSans-34" d="M 2419 4116 
L 825 1625 
L 2419 1625 
L 2419 4116 
z
M 2253 4666 
L 3047 4666 
L 3047 1625 
L 3713 1625 
L 3713 1100 
L 3047 1100 
L 3047 0 
L 2419 0 
L 2419 1100 
L 313 1100 
L 313 1709 
L 2253 4666 
z
" transform="scale(0.015625)"/>
       </defs>
       <use xlink:href="#DejaVuSans-2212"/>
       <use xlink:href="#DejaVuSans-30" transform="translate(83.789062 0)"/>
       <use xlink:href="#DejaVuSans-2e" transform="translate(147.412109 0)"/>
       <use xlink:href="#DejaVuSans-34" transform="translate(179.199219 0)"/>
      </g>
     </g>
    </g>
    <g id="xtick_2">
     <g id="line2d_3">
      <path d="M 86.855408 251.8 
L 86.855408 10.8 
" clip-path="url(#pbbba6d0b84)" style="fill: none; stroke-dasharray: 2.22,0.96; stroke-dashoffset: 0; stroke: #b0b0b0; stroke-opacity: 0.25; stroke-width: 0.6"/>
     </g>
     <g id="line2d_4">
      <g>
       <use xlink:href="#m8822e8b1eb" x="86.855408" y="251.8" style="stroke: #000000; stroke-width: 0.8"/>
      </g>
     </g>
     <g id="text_2">
      <!-- −0.3 -->
      <g transform="translate(74.714001 266.398438) scale(0.1 -0.1)">
       <defs>
        <path id="DejaVuSans-33" d="M 2597 2516 
Q 3050 2419 3304 2112 
Q 3559 1806 3559 1356 
Q 3559 666 3084 287 
Q 2609 -91 1734 -91 
Q 1441 -91 1130 -33 
Q 819 25 488 141 
L 488 750 
Q 750 597 1062 519 
Q 1375 441 1716 441 
Q 2309 441 2620 675 
Q 2931 909 2931 1356 
Q 2931 1769 2642 2001 
Q 2353 2234 1838 2234 
L 1294 2234 
L 1294 2753 
L 1863 2753 
Q 2328 2753 2575 2939 
Q 2822 3125 2822 3475 
Q 2822 3834 2567 4026 
Q 2313 4219 1838 4219 
Q 1578 4219 1281 4162 
Q 984 4106 628 3988 
L 628 4550 
Q 988 4650 1302 4700 
Q 1616 4750 1894 4750 
Q 2613 4750 3031 4423 
Q 3450 4097 3450 3541 
Q 3450 3153 3228 2886 
Q 3006 2619 2597 2516 
z
" transform="scale(0.015625)"/>
       </defs>
       <use xlink:href="#DejaVuSans-2212"/>
       <use xlink:href="#DejaVuSans-30" transform="translate(83.789062 0)"/>
       <use xlink:href="#DejaVuSans-2e" transform="translate(147.412109 0)"/>
       <use xlink:href="#DejaVuSans-33" transform="translate(179.199219 0)"/>
      </g>
     </g>
    </g>
    <g id="xtick_3">
     <g id="line2d_5">
      <path d="M 123.183682 251.8 
L 123.183682 10.8 
" clip-path="url(#pbbba6d0b84)" style="fill: none; stroke-dasharray: 2.22,0.96; stroke-dashoffset: 0; stroke: #b0b0b0; stroke-opacity: 0.25; stroke-width: 0.6"/>
     </g>
     <g id="line2d_6">
      <g>
       <use xlink:href="#m8822e8b1eb" x="123.183682" y="251.8" style="stroke: #000000; stroke-width: 0.8"/>
      </g>
     </g>
     <g id="text_3">
      <!-- −0.2 -->
      <g transform="translate(111.042276 266.398438) scale(0.1 -0.1)">
       <defs>
        <path id="DejaVuSans-32" d="M 1228 531 
L 3431 531 
L 3431 0 
L 469 0 
L 469 531 
Q 828 903 1448 1529 
Q 2069 2156 2228 2338 
Q 2531 2678 2651 2914 
Q 2772 3150 2772 3378 
Q 2772 3750 2511 3984 
Q 2250 4219 1831 4219 
Q 1534 4219 1204 4116 
Q 875 4013 500 3803 
L 500 4441 
Q 881 4594 1212 4672 
Q 1544 4750 1819 4750 
Q 2544 4750 2975 4387 
Q 3406 4025 3406 3419 
Q 3406 3131 3298 2873 
Q 3191 2616 2906 2266 
Q 2828 2175 2409 1742 
Q 1991 1309 1228 531 
z
" transform="scale(0.015625)"/>
       </defs>
       <use xlink:href="#DejaVuSans-2212"/>
       <use xlink:href="#DejaVuSans-30" transform="translate(83.789062 0)"/>
       <use xlink:href="#DejaVuSans-2e" transform="translate(147.412109 0)"/>
       <use xlink:href="#DejaVuSans-32" transform="translate(179.199219 0)"/>
      </g>
     </g>
    </g>
    <g id="xtick_4">
     <g id="line2d_7">
      <path d="M 159.511957 251.8 
L 159.511957 10.8 
" clip-path="url(#pbbba6d0b84)" style="fill: none; stroke-dasharray: 2.22,0.96; stroke-dashoffset: 0; stroke: #b0b0b0; stroke-opacity: 0.25; stroke-width: 0.6"/>
     </g>
     <g id="line2d_8">
      <g>
       <use xlink:href="#m8822e8b1eb" x="159.511957" y="251.8" style="stroke: #000000; stroke-width: 0.8"/>
      </g>
     </g>
     <g id="text_4">
      <!-- −0.1 -->
      <g transform="translate(147.370551 266.398438) scale(0.1 -0.1)">
       <defs>
        <path id="DejaVuSans-31" d="M 794 531 
L 1825 531 
L 1825 4091 
L 703 3866 
L 703 4441 
L 1819 4666 
L 2450 4666 
L 2450 531 
L 3481 531 
L 3481 0 
L 794 0 
L 794 531 
z
" transform="scale(0.015625)"/>
       </defs>
       <use xlink:href="#DejaVuSans-2212"/>
       <use xlink:href="#DejaVuSans-30" transform="translate(83.789062 0)"/>
       <use xlink:href="#DejaVuSans-2e" transform="translate(147.412109 0)"/>
       <use xlink:href="#DejaVuSans-31" transform="translate(179.199219 0)"/>
      </g>
     </g>
    </g>
    <g id="xtick_5">
     <g id="line2d_9">
      <path d="M 195.840232 251.8 
L 195.840232 10.8 
" clip-path="url(#pbbba6d0b84)" style="fill: none; stroke-dasharray: 2.22,0.96; stroke-dashoffset: 0; stroke: #b0b0b0; stroke-opacity: 0.25; stroke-width: 0.6"/>
     </g>
     <g id="line2d_10">
      <g>
       <use xlink:href="#m8822e8b1eb" x="195.840232" y="251.8" style="stroke: #000000; stroke-width: 0.8"/>
      </g>
     </g>
     <g id="text_5">
      <!-- 0.0 -->
      <g transform="translate(187.888669 266.398438) scale(0.1 -0.1)">
       <use xlink:href="#DejaVuSans-30"/>
       <use xlink:href="#DejaVuSans-2e" transform="translate(63.623047 0)"/>
       <use xlink:href="#DejaVuSans-30" transform="translate(95.410156 0)"/>
      </g>
     </g>
    </g>
    <g id="xtick_6">
     <g id="line2d_11">
      <path d="M 232.168507 251.8 
L 232.168507 10.8 
" clip-path="url(#pbbba6d0b84)" style="fill: none; stroke-dasharray: 2.22,0.96; stroke-dashoffset: 0; stroke: #b0b0b0; stroke-opacity: 0.25; stroke-width: 0.6"/>
     </g>
     <g id="line2d_12">
      <g>
       <use xlink:href="#m8822e8b1eb" x="232.168507" y="251.8" style="stroke: #000000; stroke-width: 0.8"/>
      </g>
     </g>
     <g id="text_6">
      <!-- 0.1 -->
      <g transform="translate(224.216944 266.398438) scale(0.1 -0.1)">
       <use xlink:href="#DejaVuSans-30"/>
       <use xlink:href="#DejaVuSans-2e" transform="translate(63.623047 0)"/>
       <use xlink:href="#DejaVuSans-31" transform="translate(95.410156 0)"/>
      </g>
     </g>
    </g>
    <g id="xtick_7">
     <g id="line2d_13">
      <path d="M 268.496781 251.8 
L 268.496781 10.8 
" clip-path="url(#pbbba6d0b84)" style="fill: none; stroke-dasharray: 2.22,0.96; stroke-dashoffset: 0; stroke: #b0b0b0; stroke-opacity: 0.25; stroke-width: 0.6"/>
     </g>
     <g id="line2d_14">
      <g>
       <use xlink:href="#m8822e8b1eb" x="268.496781" y="251.8" style="stroke: #000000; stroke-width: 0.8"/>
      </g>
     </g>
     <g id="text_7">
      <!-- 0.2 -->
      <g transform="translate(260.545219 266.398438) scale(0.1 -0.1)">
       <use xlink:href="#DejaVuSans-30"/>
       <use xlink:href="#DejaVuSans-2e" transform="translate(63.623047 0)"/>
       <use xlink:href="#DejaVuSans-32" transform="translate(95.410156 0)"/>
      </g>
     </g>
    </g>
    <g id="xtick_8">
     <g id="line2d_15">
      <path d="M 304.825056 251.8 
L 304.825056 10.8 
" clip-path="url(#pbbba6d0b84)" style="fill: none; stroke-dasharray: 2.22,0.96; stroke-dashoffset: 0; stroke: #b0b0b0; stroke-opacity: 0.25; stroke-width: 0.6"/>
     </g>
     <g id="line2d_16">
      <g>
       <use xlink:href="#m8822e8b1eb" x="304.825056" y="251.8" style="stroke: #000000; stroke-width: 0.8"/>
      </g>
     </g>
     <g id="text_8">
      <!-- 0.3 -->
      <g transform="translate(296.873494 266.398438) scale(0.1 -0.1)">
       <use xlink:href="#DejaVuSans-30"/>
       <use xlink:href="#DejaVuSans-2e" transform="translate(63.623047 0)"/>
       <use xlink:href="#DejaVuSans-33" transform="translate(95.410156 0)"/>
      </g>
     </g>
    </g>
    <g id="xtick_9">
     <g id="line2d_17">
      <path d="M 341.153331 251.8 
L 341.153331 10.8 
" clip-path="url(#pbbba6d0b84)" style="fill: none; stroke-dasharray: 2.22,0.96; stroke-dashoffset: 0; stroke: #b0b0b0; stroke-opacity: 0.25; stroke-width: 0.6"/>
     </g>
     <g id="line2d_18">
      <g>
       <use xlink:href="#m8822e8b1eb" x="341.153331" y="251.8" style="stroke: #000000; stroke-width: 0.8"/>
      </g>
     </g>
     <g id="text_9">
      <!-- 0.4 -->
      <g transform="translate(333.201768 266.398438) scale(0.1 -0.1)">
       <use xlink:href="#DejaVuSans-30"/>
       <use xlink:href="#DejaVuSans-2e" transform="translate(63.623047 0)"/>
       <use xlink:href="#DejaVuSans-34" transform="translate(95.410156 0)"/>
      </g>
     </g>
    </g>
    <g id="text_10">
     <!-- Weight -->
     <g transform="translate(175.257449 281.59625) scale(0.12 -0.12)">
      <defs>
       <path id="DejaVuSans-57" d="M 213 4666 
L 850 4666 
L 1831 722 
L 2809 4666 
L 3519 4666 
L 4500 722 
L 5478 4666 
L 6119 4666 
L 4947 0 
L 4153 0 
L 3169 4050 
L 2175 0 
L 1381 0 
L 213 4666 
z
" transform="scale(0.015625)"/>
       <path id="DejaVuSans-65" d="M 3597 1894 
L 3597 1613 
L 953 1613 
Q 991 1019 1311 708 
Q 1631 397 2203 397 
Q 2534 397 2845 478 
Q 3156 559 3463 722 
L 3463 178 
Q 3153 47 2828 -22 
Q 2503 -91 2169 -91 
Q 1331 -91 842 396 
Q 353 884 353 1716 
Q 353 2575 817 3079 
Q 1281 3584 2069 3584 
Q 2775 3584 3186 3129 
Q 3597 2675 3597 1894 
z
M 3022 2063 
Q 3016 2534 2758 2815 
Q 2500 3097 2075 3097 
Q 1594 3097 1305 2825 
Q 1016 2553 972 2059 
L 3022 2063 
z
" transform="scale(0.015625)"/>
       <path id="DejaVuSans-69" d="M 603 3500 
L 1178 3500 
L 1178 0 
L 603 0 
L 603 3500 
z
M 603 4863 
L 1178 4863 
L 1178 4134 
L 603 4134 
L 603 4863 
z
" transform="scale(0.015625)"/>
       <path id="DejaVuSans-67" d="M 2906 1791 
Q 2906 2416 2648 2759 
Q 2391 3103 1925 3103 
Q 1463 3103 1205 2759 
Q 947 2416 947 1791 
Q 947 1169 1205 825 
Q 1463 481 1925 481 
Q 2391 481 2648 825 
Q 2906 1169 2906 1791 
z
M 3481 434 
Q 3481 -459 3084 -895 
Q 2688 -1331 1869 -1331 
Q 1566 -1331 1297 -1286 
Q 1028 -1241 775 -1147 
L 775 -588 
Q 1028 -725 1275 -790 
Q 1522 -856 1778 -856 
Q 2344 -856 2625 -561 
Q 2906 -266 2906 331 
L 2906 616 
Q 2728 306 2450 153 
Q 2172 0 1784 0 
Q 1141 0 747 490 
Q 353 981 353 1791 
Q 353 2603 747 3093 
Q 1141 3584 1784 3584 
Q 2172 3584 2450 3431 
Q 2728 3278 2906 2969 
L 2906 3500 
L 3481 3500 
L 3481 434 
z
" transform="scale(0.015625)"/>
       <path id="DejaVuSans-68" d="M 3513 2113 
L 3513 0 
L 2938 0 
L 2938 2094 
Q 2938 2591 2744 2837 
Q 2550 3084 2163 3084 
Q 1697 3084 1428 2787 
Q 1159 2491 1159 1978 
L 1159 0 
L 581 0 
L 581 4863 
L 1159 4863 
L 1159 2956 
Q 1366 3272 1645 3428 
Q 1925 3584 2291 3584 
Q 2894 3584 3203 3211 
Q 3513 2838 3513 2113 
z
" transform="scale(0.015625)"/>
       <path id="DejaVuSans-74" d="M 1172 4494 
L 1172 3500 
L 2356 3500 
L 2356 3053 
L 1172 3053 
L 1172 1153 
Q 1172 725 1289 603 
Q 1406 481 1766 481 
L 2356 481 
L 2356 0 
L 1766 0 
Q 1100 0 847 248 
Q 594 497 594 1153 
L 594 3053 
L 172 3053 
L 172 3500 
L 594 3500 
L 594 4494 
L 1172 4494 
z
" transform="scale(0.015625)"/>
      </defs>
      <use xlink:href="#DejaVuSans-57"/>
      <use xlink:href="#DejaVuSans-65" transform="translate(93.001953 0)"/>
      <use xlink:href="#DejaVuSans-69" transform="translate(154.525391 0)"/>
      <use xlink:href="#DejaVuSans-67" transform="translate(182.308594 0)"/>
      <use xlink:href="#DejaVuSans-68" transform="translate(245.785156 0)"/>
      <use xlink:href="#DejaVuSans-74" transform="translate(309.164062 0)"/>
     </g>
    </g>
   </g>
   <g id="matplotlib.axis_2">
    <g id="ytick_1">
     <g id="line2d_19">
      <path d="M 49.25 240.847129 
L 343.069898 240.847129 
" clip-path="url(#pbbba6d0b84)" style="fill: none; stroke-dasharray: 2.22,0.96; stroke-dashoffset: 0; stroke: #b0b0b0; stroke-opacity: 0.25; stroke-width: 0.6"/>
     </g>
     <g id="line2d_20">
      <defs>
       <path id="m9c6ef8e01d" d="M 0 0 
L -3.5 0 
" style="stroke: #000000; stroke-width: 0.8"/>
      </defs>
      <g>
       <use xlink:href="#m9c6ef8e01d" x="49.25" y="240.847129" style="stroke: #000000; stroke-width: 0.8"/>
      </g>
     </g>
     <g id="text_11">
      <!-- 0.0 -->
      <g transform="translate(26.346875 244.646348) scale(0.1 -0.1)">
       <use xlink:href="#DejaVuSans-30"/>
       <use xlink:href="#DejaVuSans-2e" transform="translate(63.623047 0)"/>
       <use xlink:href="#DejaVuSans-30" transform="translate(95.410156 0)"/>
      </g>
     </g>
    </g>
    <g id="ytick_2">
     <g id="line2d_21">
      <path d="M 49.25 197.028613 
L 343.069898 197.028613 
" clip-path="url(#pbbba6d0b84)" style="fill: none; stroke-dasharray: 2.22,0.96; stroke-dashoffset: 0; stroke: #b0b0b0; stroke-opacity: 0.25; stroke-width: 0.6"/>
     </g>
     <g id="line2d_22">
      <g>
       <use xlink:href="#m9c6ef8e01d" x="49.25" y="197.028613" style="stroke: #000000; stroke-width: 0.8"/>
      </g>
     </g>
     <g id="text_12">
      <!-- 0.2 -->
      <g transform="translate(26.346875 200.827831) scale(0.1 -0.1)">
       <use xlink:href="#DejaVuSans-30"/>
       <use xlink:href="#DejaVuSans-2e" transform="translate(63.623047 0)"/>
       <use xlink:href="#DejaVuSans-32" transform="translate(95.410156 0)"/>
      </g>
     </g>
    </g>
    <g id="ytick_3">
     <g id="line2d_23">
      <path d="M 49.25 153.210096 
L 343.069898 153.210096 
" clip-path="url(#pbbba6d0b84)" style="fill: none; stroke-dasharray: 2.22,0.96; stroke-dashoffset: 0; stroke: #b0b0b0; stroke-opacity: 0.25; stroke-width: 0.6"/>
     </g>
     <g id="line2d_24">
      <g>
       <use xlink:href="#m9c6ef8e01d" x="49.25" y="153.210096" style="stroke: #000000; stroke-width: 0.8"/>
      </g>
     </g>
     <g id="text_13">
      <!-- 0.4 -->
      <g transform="translate(26.346875 157.009315) scale(0.1 -0.1)">
       <use xlink:href="#DejaVuSans-30"/>
       <use xlink:href="#DejaVuSans-2e" transform="translate(63.623047 0)"/>
       <use xlink:href="#DejaVuSans-34" transform="translate(95.410156 0)"/>
      </g>
     </g>
    </g>
    <g id="ytick_4">
     <g id="line2d_25">
      <path d="M 49.25 109.391579 
L 343.069898 109.391579 
" clip-path="url(#pbbba6d0b84)" style="fill: none; stroke-dasharray: 2.22,0.96; stroke-dashoffset: 0; stroke: #b0b0b0; stroke-opacity: 0.25; stroke-width: 0.6"/>
     </g>
     <g id="line2d_26">
      <g>
       <use xlink:href="#m9c6ef8e01d" x="49.25" y="109.391579" style="stroke: #000000; stroke-width: 0.8"/>
      </g>
     </g>
     <g id="text_14">
      <!-- 0.6 -->
      <g transform="translate(26.346875 113.190798) scale(0.1 -0.1)">
       <defs>
        <path id="DejaVuSans-36" d="M 2113 2584 
Q 1688 2584 1439 2293 
Q 1191 2003 1191 1497 
Q 1191 994 1439 701 
Q 1688 409 2113 409 
Q 2538 409 2786 701 
Q 3034 994 3034 1497 
Q 3034 2003 2786 2293 
Q 2538 2584 2113 2584 
z
M 3366 4563 
L 3366 3988 
Q 3128 4100 2886 4159 
Q 2644 4219 2406 4219 
Q 1781 4219 1451 3797 
Q 1122 3375 1075 2522 
Q 1259 2794 1537 2939 
Q 1816 3084 2150 3084 
Q 2853 3084 3261 2657 
Q 3669 2231 3669 1497 
Q 3669 778 3244 343 
Q 2819 -91 2113 -91 
Q 1303 -91 875 529 
Q 447 1150 447 2328 
Q 447 3434 972 4092 
Q 1497 4750 2381 4750 
Q 2619 4750 2861 4703 
Q 3103 4656 3366 4563 
z
" transform="scale(0.015625)"/>
       </defs>
       <use xlink:href="#DejaVuSans-30"/>
       <use xlink:href="#DejaVuSans-2e" transform="translate(63.623047 0)"/>
       <use xlink:href="#DejaVuSans-36" transform="translate(95.410156 0)"/>
      </g>
     </g>
    </g>
    <g id="ytick_5">
     <g id="line2d_27">
      <path d="M 49.25 65.573062 
L 343.069898 65.573062 
" clip-path="url(#pbbba6d0b84)" style="fill: none; stroke-dasharray: 2.22,0.96; stroke-dashoffset: 0; stroke: #b0b0b0; stroke-opacity: 0.25; stroke-width: 0.6"/>
     </g>
     <g id="line2d_28">
      <g>
       <use xlink:href="#m9c6ef8e01d" x="49.25" y="65.573062" style="stroke: #000000; stroke-width: 0.8"/>
      </g>
     </g>
     <g id="text_15">
      <!-- 0.8 -->
      <g transform="translate(26.346875 69.372281) scale(0.1 -0.1)">
       <defs>
        <path id="DejaVuSans-38" d="M 2034 2216 
Q 1584 2216 1326 1975 
Q 1069 1734 1069 1313 
Q 1069 891 1326 650 
Q 1584 409 2034 409 
Q 2484 409 2743 651 
Q 3003 894 3003 1313 
Q 3003 1734 2745 1975 
Q 2488 2216 2034 2216 
z
M 1403 2484 
Q 997 2584 770 2862 
Q 544 3141 544 3541 
Q 544 4100 942 4425 
Q 1341 4750 2034 4750 
Q 2731 4750 3128 4425 
Q 3525 4100 3525 3541 
Q 3525 3141 3298 2862 
Q 3072 2584 2669 2484 
Q 3125 2378 3379 2068 
Q 3634 1759 3634 1313 
Q 3634 634 3220 271 
Q 2806 -91 2034 -91 
Q 1263 -91 848 271 
Q 434 634 434 1313 
Q 434 1759 690 2068 
Q 947 2378 1403 2484 
z
M 1172 3481 
Q 1172 3119 1398 2916 
Q 1625 2713 2034 2713 
Q 2441 2713 2670 2916 
Q 2900 3119 2900 3481 
Q 2900 3844 2670 4047 
Q 2441 4250 2034 4250 
Q 1625 4250 1398 4047 
Q 1172 3844 1172 3481 
z
" transform="scale(0.015625)"/>
       </defs>
       <use xlink:href="#DejaVuSans-30"/>
       <use xlink:href="#DejaVuSans-2e" transform="translate(63.623047 0)"/>
       <use xlink:href="#DejaVuSans-38" transform="translate(95.410156 0)"/>
      </g>
     </g>
    </g>
    <g id="ytick_6">
     <g id="line2d_29">
      <path d="M 49.25 21.754545 
L 343.069898 21.754545 
" clip-path="url(#pbbba6d0b84)" style="fill: none; stroke-dasharray: 2.22,0.96; stroke-dashoffset: 0; stroke: #b0b0b0; stroke-opacity: 0.25; stroke-width: 0.6"/>
     </g>
     <g id="line2d_30">
      <g>
       <use xlink:href="#m9c6ef8e01d" x="49.25" y="21.754545" style="stroke: #000000; stroke-width: 0.8"/>
      </g>
     </g>
     <g id="text_16">
      <!-- 1.0 -->
      <g transform="translate(26.346875 25.553764) scale(0.1 -0.1)">
       <use xlink:href="#DejaVuSans-31"/>
       <use xlink:href="#DejaVuSans-2e" transform="translate(63.623047 0)"/>
       <use xlink:href="#DejaVuSans-30" transform="translate(95.410156 0)"/>
      </g>
     </g>
    </g>
    <g id="text_17">
     <!-- Cumulative Probability -->
     <g transform="translate(19.85125 199.166563) rotate(-90) scale(0.12 -0.12)">
      <defs>
       <path id="DejaVuSans-43" d="M 4122 4306 
L 4122 3641 
Q 3803 3938 3442 4084 
Q 3081 4231 2675 4231 
Q 1875 4231 1450 3742 
Q 1025 3253 1025 2328 
Q 1025 1406 1450 917 
Q 1875 428 2675 428 
Q 3081 428 3442 575 
Q 3803 722 4122 1019 
L 4122 359 
Q 3791 134 3420 21 
Q 3050 -91 2638 -91 
Q 1578 -91 968 557 
Q 359 1206 359 2328 
Q 359 3453 968 4101 
Q 1578 4750 2638 4750 
Q 3056 4750 3426 4639 
Q 3797 4528 4122 4306 
z
" transform="scale(0.015625)"/>
       <path id="DejaVuSans-75" d="M 544 1381 
L 544 3500 
L 1119 3500 
L 1119 1403 
Q 1119 906 1312 657 
Q 1506 409 1894 409 
Q 2359 409 2629 706 
Q 2900 1003 2900 1516 
L 2900 3500 
L 3475 3500 
L 3475 0 
L 2900 0 
L 2900 538 
Q 2691 219 2414 64 
Q 2138 -91 1772 -91 
Q 1169 -91 856 284 
Q 544 659 544 1381 
z
M 1991 3584 
L 1991 3584 
z
" transform="scale(0.015625)"/>
       <path id="DejaVuSans-6d" d="M 3328 2828 
Q 3544 3216 3844 3400 
Q 4144 3584 4550 3584 
Q 5097 3584 5394 3201 
Q 5691 2819 5691 2113 
L 5691 0 
L 5113 0 
L 5113 2094 
Q 5113 2597 4934 2840 
Q 4756 3084 4391 3084 
Q 3944 3084 3684 2787 
Q 3425 2491 3425 1978 
L 3425 0 
L 2847 0 
L 2847 2094 
Q 2847 2600 2669 2842 
Q 2491 3084 2119 3084 
Q 1678 3084 1418 2786 
Q 1159 2488 1159 1978 
L 1159 0 
L 581 0 
L 581 3500 
L 1159 3500 
L 1159 2956 
Q 1356 3278 1631 3431 
Q 1906 3584 2284 3584 
Q 2666 3584 2933 3390 
Q 3200 3197 3328 2828 
z
" transform="scale(0.015625)"/>
       <path id="DejaVuSans-6c" d="M 603 4863 
L 1178 4863 
L 1178 0 
L 603 0 
L 603 4863 
z
" transform="scale(0.015625)"/>
       <path id="DejaVuSans-61" d="M 2194 1759 
Q 1497 1759 1228 1600 
Q 959 1441 959 1056 
Q 959 750 1161 570 
Q 1363 391 1709 391 
Q 2188 391 2477 730 
Q 2766 1069 2766 1631 
L 2766 1759 
L 2194 1759 
z
M 3341 1997 
L 3341 0 
L 2766 0 
L 2766 531 
Q 2569 213 2275 61 
Q 1981 -91 1556 -91 
Q 1019 -91 701 211 
Q 384 513 384 1019 
Q 384 1609 779 1909 
Q 1175 2209 1959 2209 
L 2766 2209 
L 2766 2266 
Q 2766 2663 2505 2880 
Q 2244 3097 1772 3097 
Q 1472 3097 1187 3025 
Q 903 2953 641 2809 
L 641 3341 
Q 956 3463 1253 3523 
Q 1550 3584 1831 3584 
Q 2591 3584 2966 3190 
Q 3341 2797 3341 1997 
z
" transform="scale(0.015625)"/>
       <path id="DejaVuSans-76" d="M 191 3500 
L 800 3500 
L 1894 563 
L 2988 3500 
L 3597 3500 
L 2284 0 
L 1503 0 
L 191 3500 
z
" transform="scale(0.015625)"/>
       <path id="DejaVuSans-20" transform="scale(0.015625)"/>
       <path id="DejaVuSans-50" d="M 1259 4147 
L 1259 2394 
L 2053 2394 
Q 2494 2394 2734 2622 
Q 2975 2850 2975 3272 
Q 2975 3691 2734 3919 
Q 2494 4147 2053 4147 
L 1259 4147 
z
M 628 4666 
L 2053 4666 
Q 2838 4666 3239 4311 
Q 3641 3956 3641 3272 
Q 3641 2581 3239 2228 
Q 2838 1875 2053 1875 
L 1259 1875 
L 1259 0 
L 628 0 
L 628 4666 
z
" transform="scale(0.015625)"/>
       <path id="DejaVuSans-72" d="M 2631 2963 
Q 2534 3019 2420 3045 
Q 2306 3072 2169 3072 
Q 1681 3072 1420 2755 
Q 1159 2438 1159 1844 
L 1159 0 
L 581 0 
L 581 3500 
L 1159 3500 
L 1159 2956 
Q 1341 3275 1631 3429 
Q 1922 3584 2338 3584 
Q 2397 3584 2469 3576 
Q 2541 3569 2628 3553 
L 2631 2963 
z
" transform="scale(0.015625)"/>
       <path id="DejaVuSans-6f" d="M 1959 3097 
Q 1497 3097 1228 2736 
Q 959 2375 959 1747 
Q 959 1119 1226 758 
Q 1494 397 1959 397 
Q 2419 397 2687 759 
Q 2956 1122 2956 1747 
Q 2956 2369 2687 2733 
Q 2419 3097 1959 3097 
z
M 1959 3584 
Q 2709 3584 3137 3096 
Q 3566 2609 3566 1747 
Q 3566 888 3137 398 
Q 2709 -91 1959 -91 
Q 1206 -91 779 398 
Q 353 888 353 1747 
Q 353 2609 779 3096 
Q 1206 3584 1959 3584 
z
" transform="scale(0.015625)"/>
       <path id="DejaVuSans-62" d="M 3116 1747 
Q 3116 2381 2855 2742 
Q 2594 3103 2138 3103 
Q 1681 3103 1420 2742 
Q 1159 2381 1159 1747 
Q 1159 1113 1420 752 
Q 1681 391 2138 391 
Q 2594 391 2855 752 
Q 3116 1113 3116 1747 
z
M 1159 2969 
Q 1341 3281 1617 3432 
Q 1894 3584 2278 3584 
Q 2916 3584 3314 3078 
Q 3713 2572 3713 1747 
Q 3713 922 3314 415 
Q 2916 -91 2278 -91 
Q 1894 -91 1617 61 
Q 1341 213 1159 525 
L 1159 0 
L 581 0 
L 581 4863 
L 1159 4863 
L 1159 2969 
z
" transform="scale(0.015625)"/>
       <path id="DejaVuSans-79" d="M 2059 -325 
Q 1816 -950 1584 -1140 
Q 1353 -1331 966 -1331 
L 506 -1331 
L 506 -850 
L 844 -850 
Q 1081 -850 1212 -737 
Q 1344 -625 1503 -206 
L 1606 56 
L 191 3500 
L 800 3500 
L 1894 763 
L 2988 3500 
L 3597 3500 
L 2059 -325 
z
" transform="scale(0.015625)"/>
      </defs>
      <use xlink:href="#DejaVuSans-43"/>
      <use xlink:href="#DejaVuSans-75" transform="translate(69.824219 0)"/>
      <use xlink:href="#DejaVuSans-6d" transform="translate(133.203125 0)"/>
      <use xlink:href="#DejaVuSans-75" transform="translate(230.615234 0)"/>
      <use xlink:href="#DejaVuSans-6c" transform="translate(293.994141 0)"/>
      <use xlink:href="#DejaVuSans-61" transform="translate(321.777344 0)"/>
      <use xlink:href="#DejaVuSans-74" transform="translate(383.056641 0)"/>
      <use xlink:href="#DejaVuSans-69" transform="translate(422.265625 0)"/>
      <use xlink:href="#DejaVuSans-76" transform="translate(450.048828 0)"/>
      <use xlink:href="#DejaVuSans-65" transform="translate(509.228516 0)"/>
      <use xlink:href="#DejaVuSans-20" transform="translate(570.751953 0)"/>
      <use xlink:href="#DejaVuSans-50" transform="translate(602.539062 0)"/>
      <use xlink:href="#DejaVuSans-72" transform="translate(661.091797 0)"/>
      <use xlink:href="#DejaVuSans-6f" transform="translate(699.955078 0)"/>
      <use xlink:href="#DejaVuSans-62" transform="translate(761.136719 0)"/>
      <use xlink:href="#DejaVuSans-61" transform="translate(824.613281 0)"/>
      <use xlink:href="#DejaVuSans-62" transform="translate(885.892578 0)"/>
      <use xlink:href="#DejaVuSans-69" transform="translate(949.369141 0)"/>
      <use xlink:href="#DejaVuSans-6c" transform="translate(977.152344 0)"/>
      <use xlink:href="#DejaVuSans-69" transform="translate(1004.935547 0)"/>
      <use xlink:href="#DejaVuSans-74" transform="translate(1032.71875 0)"/>
      <use xlink:href="#DejaVuSans-79" transform="translate(1071.927734 0)"/>
     </g>
    </g>
   </g>
   <g id="line2d_31">
    <path d="M 94.001503 240.845455 
L 105.269024 240.713144 
L 111.457575 240.354734 
L 112.743047 240.244196 
L 116.492431 239.823817 
L 117.052479 239.760174 
L 117.782629 239.631214 
L 119.24024 239.406789 
L 119.399311 239.374967 
L 120.270993 239.21251 
L 122.594581 238.705041 
L 123.012679 238.606227 
L 123.993457 238.388501 
L 124.154298 238.344956 
L 125.222668 238.075311 
L 125.39072 238.015017 
L 126.231643 237.710201 
L 126.38319 237.651583 
L 126.69562 237.552768 
L 129.511973 236.507684 
L 129.992926 236.31843 
L 130.08198 236.288283 
L 130.335741 236.160997 
L 134.612563 233.812907 
L 134.729025 233.74089 
L 135.005885 233.56001 
L 135.225098 233.427699 
L 135.635791 233.201599 
L 135.747171 233.141306 
L 136.329618 232.705854 
L 136.810885 232.365866 
L 137.094041 232.191686 
L 137.250221 232.049327 
L 137.543938 231.824902 
L 137.786184 231.632298 
L 138.037677 231.441369 
L 138.147302 231.352604 
L 138.362721 231.193496 
L 138.575037 230.987494 
L 138.798776 230.811638 
L 138.941915 230.696077 
L 139.117156 230.56879 
L 139.268886 230.449878 
L 140.559306 229.290907 
L 140.700957 229.155246 
L 141.834839 228.024747 
L 143.127392 226.673171 
L 143.303569 226.470518 
L 143.426603 226.319785 
L 143.555982 226.145605 
L 143.722252 225.954675 
L 144.118092 225.474003 
L 144.25316 225.316571 
L 144.437554 225.140715 
L 144.672065 224.882794 
L 146.267321 222.849569 
L 146.453052 222.596671 
L 146.565774 222.434215 
L 146.842526 222.065755 
L 146.953645 221.923396 
L 147.068765 221.767638 
L 147.18015 221.61188 
L 147.550909 221.119485 
L 148.412333 219.930366 
L 148.520492 219.803081 
L 148.681435 219.555207 
L 148.879688 219.265465 
L 149.04244 219.027641 
L 149.185888 218.819965 
L 149.328302 218.620661 
L 149.441359 218.468253 
L 149.654915 218.118217 
L 150.079072 217.511933 
L 150.172571 217.344452 
L 150.450686 216.962594 
L 150.97175 216.183805 
L 151.283826 215.674661 
L 151.50365 215.329649 
L 151.686448 215.041582 
L 151.794882 214.872425 
L 151.990063 214.569284 
L 156.07005 207.511614 
L 156.185162 207.302263 
L 156.780929 206.263878 
L 156.896425 206.057873 
L 157.109814 205.615724 
L 157.265347 205.349429 
L 157.589695 204.773292 
L 157.709129 204.527095 
L 157.79299 204.357936 
L 157.952091 204.05982 
L 159.04386 202.060093 
L 159.159473 201.827291 
L 159.716976 200.686743 
L 160.003734 200.135728 
L 160.167717 199.842636 
L 160.265338 199.643334 
L 160.422236 199.356942 
L 160.636301 198.954984 
L 160.901005 198.444165 
L 160.999617 198.202992 
L 161.396918 197.350511 
L 161.598104 197.002151 
L 161.748319 196.704032 
L 163.511913 193.274011 
L 163.60931 193.084758 
L 163.733367 192.84861 
L 164.679239 191.064932 
L 164.808206 190.818735 
L 164.931904 190.639528 
L 165.244816 190.115313 
L 165.337693 189.956206 
L 165.455081 189.755226 
L 165.734937 189.36667 
L 165.914086 189.093676 
L 166.108083 188.827378 
L 167.509387 187.115718 
L 167.675209 186.953261 
L 167.894462 186.762333 
L 168.204194 186.482637 
L 168.402774 186.316831 
L 168.76033 186.048858 
L 168.877264 185.976844 
L 169.103512 185.819412 
L 169.472991 185.536367 
L 170.380517 184.945156 
L 170.76985 184.695613 
L 171.140133 184.511384 
L 172.498769 183.786188 
L 172.616471 183.719196 
L 173.130608 183.409353 
L 173.288961 183.322263 
L 173.94539 182.945428 
L 174.472078 182.674109 
L 174.623591 182.588691 
L 179.204813 179.994402 
L 179.43951 179.845348 
L 179.78333 179.649392 
L 180.770094 179.011287 
L 180.908742 178.902427 
L 186.606236 174.293335 
L 186.776099 174.130882 
L 187.083554 173.82606 
L 187.198135 173.688726 
L 188.458173 172.275181 
L 188.643398 172.030659 
L 188.765457 171.886625 
L 188.907015 171.730871 
L 189.085155 171.50979 
L 189.257257 171.313841 
L 189.553585 170.947054 
L 189.720905 170.747755 
L 189.886434 170.509926 
L 190.142559 170.1063 
L 190.427372 169.707689 
L 190.537148 169.521789 
L 190.671883 169.33756 
L 190.872802 169.036095 
L 191.075101 168.75807 
L 191.468581 167.979281 
L 191.575371 167.771604 
L 191.874104 167.128478 
L 192.024358 166.768391 
L 192.157887 166.463576 
L 192.37834 165.837197 
L 192.631342 165.083527 
L 192.750276 164.703349 
L 192.884626 164.237745 
L 192.988186 163.785547 
L 193.121538 163.167539 
L 193.779085 159.355662 
L 193.975261 157.779658 
L 194.018162 157.412878 
L 194.146772 156.073025 
L 194.471715 152.232672 
L 195.09222 144.057903 
L 195.188356 142.557268 
L 195.405897 139.222714 
L 195.489457 137.944826 
L 195.765443 133.483123 
L 195.84066 131.848503 
L 196.085654 127.428667 
L 196.341104 123.432554 
L 196.457173 121.593608 
L 196.634814 118.965824 
L 196.762549 117.133577 
L 196.91748 115.050115 
L 197.351877 109.672276 
L 197.511786 107.850084 
L 198.282269 101.845873 
L 198.355186 101.462332 
L 198.480286 100.824233 
L 199.900801 96.416124 
L 200.067165 96.064408 
L 200.22144 95.76797 
L 200.303673 95.603832 
L 200.589136 95.032726 
L 200.735824 94.789869 
L 200.94103 94.459935 
L 201.065007 94.267328 
L 201.415795 93.749816 
L 201.624549 93.471791 
L 201.966628 92.997817 
L 202.085418 92.813595 
L 202.253012 92.59252 
L 202.806466 91.957764 
L 202.965778 91.776885 
L 203.461786 91.187352 
L 206.230851 88.29327 
L 206.505447 88.060468 
L 206.734864 87.834366 
L 206.977554 87.62669 
L 207.574397 87.090751 
L 208.949184 86.01049 
L 209.109667 85.873162 
L 209.27169 85.769317 
L 209.52989 85.56834 
L 209.859609 85.308742 
L 210.101292 85.151316 
L 210.265414 85.003933 
L 210.381719 84.930242 
L 211.156383 84.327311 
L 211.547974 84.052629 
L 211.885376 83.858351 
L 212.090423 83.721023 
L 212.450557 83.504976 
L 213.003981 83.176701 
L 213.227094 83.036017 
L 213.366948 82.932185 
L 213.997902 82.56707 
L 214.116319 82.498407 
L 214.557135 82.238808 
L 214.814391 82.078026 
L 215.042578 81.939014 
L 215.189955 81.845225 
L 215.535871 81.674401 
L 219.497791 79.654575 
L 219.666613 79.555758 
L 219.913838 79.400004 
L 220.066104 79.324628 
L 220.626019 79.018135 
L 220.904933 78.845639 
L 221.063473 78.756865 
L 221.542142 78.447028 
L 221.707747 78.326442 
L 222.224401 77.973054 
L 222.368671 77.862524 
L 222.598126 77.700057 
L 222.788243 77.56273 
L 223.056436 77.361753 
L 223.353189 77.118896 
L 223.495533 77.011708 
L 223.697272 76.871024 
L 223.835547 76.747095 
L 224.303606 76.320015 
L 224.458668 76.144164 
L 224.990837 75.583099 
L 225.165953 75.367039 
L 225.36633 75.095727 
L 227.633811 71.444631 
L 231.613259 63.321777 
L 231.734276 63.104046 
L 235.315885 56.027957 
L 235.371843 55.885602 
L 235.491412 55.674569 
L 235.673476 55.342964 
L 235.830804 55.05154 
L 236.268226 54.266045 
L 236.587948 53.728435 
L 236.738082 53.430326 
L 236.840662 53.24609 
L 238.297398 50.770717 
L 239.210327 49.244963 
L 239.328841 49.0557 
L 239.442213 48.871478 
L 240.346307 47.452911 
L 240.446527 47.280403 
L 240.88802 46.585354 
L 241.072144 46.317385 
L 241.357711 45.871879 
L 241.481768 45.689328 
L 243.065975 43.225669 
L 243.259827 42.969426 
L 243.461793 42.681359 
L 243.608478 42.498808 
L 244.36131 41.416876 
L 244.833007 40.740253 
L 244.95924 40.552661 
L 245.083135 40.39188 
L 245.225652 40.232783 
L 245.416602 39.99161 
L 245.584767 39.777235 
L 245.859332 39.378624 
L 246.008009 39.202772 
L 246.161894 39.010166 
L 247.174166 37.720557 
L 247.378232 37.460958 
L 247.547713 37.249939 
L 248.145832 36.56996 
L 248.903033 35.727528 
L 249.064123 35.553348 
L 249.174171 35.41098 
L 249.551004 35.032479 
L 253.290768 31.508669 
L 253.495003 31.366314 
L 253.650046 31.25577 
L 253.845484 31.094988 
L 254.252907 30.760027 
L 254.508731 30.565749 
L 255.724198 29.735044 
L 255.84217 29.646269 
L 256.391375 29.279483 
L 256.583916 29.147183 
L 256.813344 28.989744 
L 256.964376 28.904326 
L 257.312762 28.684936 
L 257.428418 28.627986 
L 257.751654 28.410254 
L 257.89724 28.319821 
L 258.283157 28.087019 
L 258.790662 27.852546 
L 258.997159 27.735303 
L 259.965794 27.22449 
L 260.156604 27.124001 
L 264.697504 25.191266 
L 265.2635 25.013729 
L 265.96391 24.760843 
L 266.797807 24.558181 
L 271.337966 23.474577 
L 272.070964 23.342264 
L 274.718539 22.91017 
L 275.737123 22.754416 
L 276.75378 22.602005 
L 278.387043 22.439539 
L 280.928901 22.21345 
L 286.629559 21.896901 
L 297.512587 21.754545 
L 297.512587 21.754545 
" clip-path="url(#pbbba6d0b84)" style="fill: none; stroke: #f39c12; stroke-opacity: 0.95; stroke-width: 1.2; stroke-linecap: square"/>
   </g>
   <g id="line2d_32">
    <path d="M 62.60545 240.845455 
L 65.373559 240.723193 
L 66.511821 240.52054 
L 67.049408 240.399954 
L 68.126174 240.07504 
L 68.317373 239.996323 
L 68.788897 239.818793 
L 68.96077 239.768549 
L 69.653568 239.498903 
L 69.806419 239.416837 
L 70.583114 239.132119 
L 70.723698 239.071826 
L 71.208895 238.879222 
L 71.647397 238.723464 
L 72.459711 238.423672 
L 72.851399 238.25954 
L 73.167451 238.110482 
L 73.852238 237.803991 
L 74.160256 237.666656 
L 74.568876 237.500849 
L 75.232638 237.234554 
L 75.728997 237.010128 
L 75.900059 236.929737 
L 76.810993 236.534481 
L 76.946467 236.459114 
L 78.746 235.618357 
L 79.11925 235.457575 
L 81.186906 234.353872 
L 82.090337 233.853102 
L 82.448678 233.64375 
L 82.599916 233.551636 
L 83.609925 232.911857 
L 83.722782 232.834815 
L 84.74116 232.148141 
L 84.887992 232.059376 
L 85.07918 231.918691 
L 90.339177 228.686298 
L 90.817326 228.455174 
L 91.003826 228.378133 
L 91.433222 228.210651 
L 91.617676 228.13026 
L 92.143982 227.892436 
L 92.42422 227.763476 
L 95.416387 226.828928 
L 96.428485 226.604504 
L 97.463699 226.418599 
L 98.667527 226.23102 
L 99.005893 226.177426 
L 99.970257 226.030041 
L 108.97122 225.286425 
L 116.183687 224.914616 
L 119.375005 224.775605 
L 121.295797 224.705263 
L 125.63655 224.51601 
L 126.767866 224.462416 
L 136.172935 223.975045 
L 137.265865 223.852782 
L 138.562765 223.710424 
L 139.805992 223.534569 
L 141.545545 223.28837 
L 142.063742 223.211329 
L 142.703078 223.067294 
L 143.434626 222.889764 
L 144.371869 222.735682 
L 145.498297 222.491158 
L 145.614002 222.466036 
L 146.334084 222.291856 
L 147.490464 221.998763 
L 147.600869 221.973641 
L 149.218173 221.566661 
L 149.656442 221.400854 
L 150.266931 221.203225 
L 150.450559 221.154656 
L 150.888633 221.012297 
L 151.30208 220.871612 
L 151.959063 220.655561 
L 154.528508 219.654021 
L 154.852239 219.503288 
L 155.068475 219.396101 
L 157.485144 218.275649 
L 157.66746 218.176835 
L 161.37193 216.235724 
L 161.688266 216.051495 
L 162.057307 215.823721 
L 163.139662 215.152119 
L 163.258396 215.076753 
L 163.399879 214.987988 
L 163.966368 214.653025 
L 164.082064 214.569284 
L 164.267812 214.431949 
L 164.481891 214.292939 
L 164.745422 214.142207 
L 164.868275 214.068513 
L 166.207881 213.138993 
L 166.437257 212.929639 
L 166.54802 212.852598 
L 166.75725 212.701865 
L 166.970225 212.537734 
L 167.523457 212.1475 
L 167.809784 211.968295 
L 167.93628 211.851059 
L 168.073608 211.728798 
L 168.339777 211.529496 
L 168.499497 211.383787 
L 168.891845 211.07227 
L 169.31707 210.680364 
L 169.526891 210.507859 
L 169.643641 210.404018 
L 170.042698 210.022161 
L 170.535087 209.558236 
L 170.715784 209.407503 
L 170.943366 209.198152 
L 171.252673 208.91511 
L 171.371623 208.796198 
L 173.196863 206.999119 
L 173.318127 206.896956 
L 173.850313 206.42131 
L 173.978301 206.307423 
L 174.20239 206.054524 
L 174.404142 205.845173 
L 174.626908 205.595626 
L 174.774999 205.453268 
L 174.911081 205.307556 
L 175.022004 205.18362 
L 177.11628 202.629527 
L 177.230073 202.47712 
L 177.326808 202.34481 
L 177.435358 202.205801 
L 177.539755 202.055068 
L 178.291364 201.093725 
L 178.404919 200.936289 
L 178.669486 200.579555 
L 178.866497 200.269716 
L 178.992494 200.077109 
L 179.101283 199.949824 
L 179.268854 199.750522 
L 179.573624 199.343543 
L 180.071079 198.670267 
L 180.195662 198.517859 
L 181.816324 195.993913 
L 181.938679 195.77451 
L 182.073426 195.585257 
L 182.286729 195.235222 
L 182.43686 195.00577 
L 182.83601 194.360968 
L 183.169494 193.768083 
L 183.26779 193.612326 
L 183.48045 193.228791 
L 183.648965 192.9357 
L 183.809865 192.624186 
L 183.901984 192.468425 
L 184.099376 192.126764 
L 184.214676 191.89899 
L 185.181883 189.952856 
L 185.37724 189.5442 
L 185.583162 189.148945 
L 185.698842 188.899395 
L 187.847951 184.228338 
L 187.967237 183.938593 
L 188.022634 183.766091 
L 188.179898 183.402654 
L 188.298858 183.107888 
L 188.532391 182.466433 
L 188.615247 182.267127 
L 188.757797 181.945564 
L 188.89516 181.618973 
L 189.078826 181.171803 
L 189.258861 180.686102 
L 189.345379 180.454978 
L 189.691123 179.56063 
L 189.840745 179.180445 
L 190.139274 178.28442 
L 190.804946 176.308139 
L 191.008747 175.747075 
L 191.082206 175.537721 
L 193.370196 167.453391 
L 193.700497 165.937686 
L 193.77049 165.560851 
L 193.922796 164.787089 
L 193.995964 164.430352 
L 194.140728 163.676681 
L 194.319311 162.606475 
L 194.450216 161.847784 
L 194.482058 161.643457 
L 194.857792 159.235076 
L 194.896531 158.997253 
L 195.010333 158.138073 
L 195.352203 155.423199 
L 195.800467 137.792421 
L 195.863724 127.483933 
L 195.975379 120.153273 
L 195.993059 119.307485 
L 196.256993 108.076173 
L 196.484371 105.980985 
L 196.536608 105.58573 
L 196.726183 104.232485 
L 197.229473 101.031909 
L 197.257612 100.847674 
L 197.403847 99.961703 
L 197.768124 97.978717 
L 197.824186 97.710748 
L 197.947966 97.116187 
L 199.173109 92.001303 
L 199.227617 91.771857 
L 199.446833 90.99139 
L 199.560496 90.560967 
L 199.797716 89.768773 
L 200.921199 86.281815 
L 200.988917 86.085866 
L 201.104927 85.722423 
L 201.462319 84.7996 
L 201.512684 84.648874 
L 202.414939 82.195269 
L 202.553198 81.811729 
L 203.944691 78.460427 
L 204.036804 78.234325 
L 204.25677 77.748637 
L 204.358868 77.524206 
L 204.589712 76.971512 
L 204.721207 76.705228 
L 204.854024 76.423847 
L 205.135819 75.784076 
L 205.614049 74.757409 
L 205.70016 74.56146 
L 205.822654 74.259994 
L 206.000332 73.906606 
L 206.159497 73.538148 
L 206.397892 73.00221 
L 206.865947 72.064304 
L 206.94076 71.92362 
L 207.882517 70.225358 
L 208.067829 69.912178 
L 208.175457 69.714544 
L 208.329165 69.43652 
L 208.423408 69.279094 
L 208.543366 69.073089 
L 208.68695 68.836945 
L 208.929363 68.476858 
L 209.20552 68.024653 
L 209.313367 67.8622 
L 209.563623 67.453546 
L 209.647248 67.297792 
L 209.869908 66.91258 
L 210.008737 66.673079 
L 210.666478 65.587803 
L 210.796864 65.363372 
L 210.925147 65.167423 
L 211.114371 64.872657 
L 211.244976 64.66498 
L 211.357877 64.522612 
L 211.621792 64.137412 
L 211.952499 63.599789 
L 212.069244 63.442364 
L 212.57155 62.693721 
L 212.685136 62.531268 
L 212.990101 62.085762 
L 213.139895 61.891484 
L 213.270739 61.729031 
L 213.479834 61.43258 
L 213.603094 61.273483 
L 213.836683 60.98206 
L 217.615491 56.471778 
L 217.923896 56.177012 
L 218.144301 55.952594 
L 218.29842 55.810225 
L 218.579713 55.517144 
L 218.758767 55.347978 
L 219.435359 54.674712 
L 219.63206 54.482106 
L 221.868247 52.428784 
L 222.036596 52.294799 
L 222.36534 52.023474 
L 222.601613 51.820825 
L 222.868444 51.626547 
L 222.999043 51.497577 
L 223.376356 51.207839 
L 223.500724 51.093952 
L 223.859807 50.834353 
L 224.028584 50.691998 
L 224.435807 50.388861 
L 224.561619 50.301771 
L 229.656457 46.943757 
L 230.227518 46.592053 
L 230.53424 46.399447 
L 231.15921 46.066157 
L 231.376412 45.970696 
L 232.508998 45.371108 
L 232.671698 45.250522 
L 233.176429 44.995951 
L 233.326633 44.913889 
L 233.675653 44.724626 
L 233.800425 44.649262 
L 235.353267 43.945843 
L 235.487504 43.87048 
L 235.818058 43.708014 
L 240.03254 42.038233 
L 244.875588 40.545962 
L 245.933662 40.288048 
L 246.072314 40.257895 
L 246.750529 40.12391 
L 248.123053 39.864325 
L 249.575099 39.591328 
L 249.822889 39.537734 
L 251.953279 39.209471 
L 253.450148 39.023564 
L 254.30395 38.943174 
L 260.572256 38.502696 
L 267.324362 38.212957 
L 269.063569 38.130882 
L 273.614739 37.944975 
L 274.917225 37.884682 
L 287.393018 37.265009 
L 288.030222 37.218114 
L 289.639552 37.050633 
L 297.081188 35.799548 
L 297.270026 35.742598 
L 297.779995 35.576789 
L 297.876764 35.556691 
L 298.487962 35.390882 
L 299.06 35.194933 
L 299.345445 35.091101 
L 299.780525 34.910222 
L 299.967513 34.833174 
L 300.362383 34.675748 
L 300.493656 34.607072 
L 300.882756 34.380969 
L 306.174984 31.073219 
L 306.288545 31.014598 
L 312.705631 27.112274 
L 313.007901 26.966576 
L 313.496281 26.715348 
L 313.623895 26.641656 
L 320.699426 23.548269 
L 321.12027 23.359019 
L 322.427428 22.905142 
L 322.79521 22.769486 
L 323.332592 22.605348 
L 324.795556 22.178269 
L 327.21706 21.80144 
L 329.714448 21.754545 
L 329.714448 21.754545 
" clip-path="url(#pbbba6d0b84)" style="fill: none; stroke: #d4b000; stroke-opacity: 0.95; stroke-width: 1.2; stroke-linecap: square"/>
   </g>
   <g id="line2d_33">
    <path d="M 72.110053 240.845455 
L 79.394247 240.723193 
L 80.969344 240.503792 
L 81.569369 240.368132 
L 84.089016 239.192412 
L 84.50751 238.869173 
L 84.750461 238.693317 
L 84.918263 238.539234 
L 85.579166 237.849211 
L 85.694113 237.680054 
L 85.944566 237.381938 
L 86.088041 237.169236 
L 86.225302 236.963234 
L 86.349993 236.753882 
L 86.583935 236.346902 
L 87.399032 234.759177 
L 87.518169 234.5515 
L 87.66172 234.357222 
L 88.048849 233.819606 
L 90.316235 231.84165 
L 90.786004 231.608851 
L 93.154728 230.570465 
L 93.722987 230.411358 
L 94.831844 230.170184 
L 95.717379 229.967532 
L 95.851251 229.934036 
L 96.90396 229.774928 
L 97.282666 229.717984 
L 97.728963 229.657691 
L 107.428679 228.520491 
L 108.069147 228.40158 
L 109.221051 228.249172 
L 109.413598 228.207301 
L 113.286779 227.507229 
L 113.759379 227.405065 
L 114.944678 227.148818 
L 115.082675 227.095225 
L 117.671721 226.509038 
L 118.255398 226.371704 
L 118.974343 226.180776 
L 119.079383 226.14393 
L 119.846967 225.946301 
L 119.934479 225.927878 
L 120.526936 225.790544 
L 120.847719 225.708478 
L 124.105881 224.790678 
L 124.242714 224.752158 
L 125.193019 224.454042 
L 125.885238 224.23799 
L 126.063483 224.176022 
L 126.619308 223.988443 
L 126.783668 223.924799 
L 127.10541 223.792489 
L 128.84702 223.151036 
L 129.193636 223.01035 
L 129.304912 222.966805 
L 130.241219 222.556476 
L 130.469808 222.457662 
L 130.94832 222.243286 
L 131.705483 221.896599 
L 132.089115 221.755914 
L 133.472141 221.158006 
L 133.943567 220.908458 
L 134.372947 220.680684 
L 136.679704 219.509988 
L 136.917864 219.35423 
L 137.046425 219.278864 
L 137.221092 219.171675 
L 137.40803 219.044389 
L 143.359294 215.354771 
L 143.500295 215.245909 
L 144.051643 214.890848 
L 144.197381 214.802083 
L 146.626896 212.993282 
L 146.744923 212.907866 
L 147.092216 212.656645 
L 147.671984 212.246317 
L 147.824559 212.117353 
L 154.713493 206.307423 
L 154.917183 206.136589 
L 155.169921 205.903791 
L 155.338316 205.753058 
L 155.485729 205.632472 
L 155.736824 205.413072 
L 155.883065 205.230515 
L 156.081456 205.061359 
L 156.296327 204.858707 
L 156.445976 204.729747 
L 156.724154 204.475176 
L 156.842048 204.346213 
L 164.436827 197.275145 
L 164.802663 196.931809 
L 165.449502 196.276956 
L 165.601909 196.129573 
L 165.756731 195.948693 
L 167.787841 193.850149 
L 167.97436 193.660895 
L 168.09023 193.53026 
L 168.350232 193.260613 
L 168.873274 192.743097 
L 169.045383 192.558868 
L 169.193292 192.401433 
L 169.43395 192.178683 
L 169.559171 192.046373 
L 170.807968 190.82041 
L 170.961517 190.669674 
L 171.697684 189.910983 
L 171.841793 189.7636 
L 172.040327 189.594444 
L 172.222735 189.403516 
L 172.343138 189.246084 
L 172.549635 189.051803 
L 173.117245 188.51084 
L 173.258203 188.380204 
L 173.45738 188.216073 
L 173.682788 188.001694 
L 173.870841 187.830864 
L 174.056343 187.660034 
L 174.267993 187.440634 
L 174.771771 186.970009 
L 174.91931 186.797504 
L 178.107724 183.556736 
L 178.279765 183.395955 
L 178.422646 183.206698 
L 178.637665 182.992323 
L 178.757961 182.856666 
L 179.478938 182.118073 
L 179.685214 181.881921 
L 179.872395 181.692665 
L 180.067236 181.45317 
L 180.278585 181.243816 
L 180.513737 180.970826 
L 180.658475 180.801667 
L 181.548753 179.793425 
L 181.651784 179.649392 
L 182.836204 178.314566 
L 182.964022 178.157134 
L 183.29762 177.775278 
L 183.604751 177.426911 
L 183.783458 177.209186 
L 183.983855 176.973041 
L 184.163831 176.780435 
L 184.331068 176.57443 
L 185.157076 175.452309 
L 185.264813 175.303248 
L 185.586422 174.867797 
L 185.777104 174.613226 
L 185.891012 174.474214 
L 186.009279 174.331859 
L 186.22459 174.035414 
L 186.482098 173.688726 
L 187.008772 172.936733 
L 187.119917 172.759204 
L 187.246834 172.591723 
L 187.380752 172.404144 
L 188.424143 170.742728 
L 188.522809 170.590317 
L 188.670472 170.339096 
L 191.115631 166.225753 
L 191.232325 165.996301 
L 191.380706 165.721632 
L 191.538108 165.401741 
L 191.646646 165.168945 
L 191.820519 164.790439 
L 191.916631 164.607881 
L 192.101702 164.209277 
L 192.180282 164.026719 
L 192.36464 163.626437 
L 193.877902 159.878203 
L 194.10156 159.266894 
L 195.250609 155.108328 
L 195.745892 150.847602 
L 195.840226 139.95628 
L 195.95134 112.430702 
L 196.381277 108.732711 
L 196.700247 107.253839 
L 196.759937 107.002624 
L 196.876346 106.52865 
L 197.047567 105.930747 
L 197.160118 105.547206 
L 197.406112 104.718172 
L 197.568653 104.217401 
L 198.023707 102.912722 
L 198.220742 102.391854 
L 198.445543 101.829118 
L 198.523638 101.63484 
L 198.926767 100.685221 
L 199.56136 99.298479 
L 199.692305 99.018783 
L 199.789026 98.85633 
L 200.003919 98.378999 
L 200.116497 98.189749 
L 200.274352 97.863158 
L 200.452682 97.534896 
L 200.564837 97.333919 
L 200.669072 97.106145 
L 200.802838 96.856589 
L 200.966915 96.555123 
L 201.078267 96.347447 
L 201.162739 96.190022 
L 201.293746 95.975646 
L 202.112132 94.605646 
L 202.693711 93.635929 
L 202.918872 93.267471 
L 203.031984 93.09999 
L 203.377697 92.574094 
L 203.694141 92.048197 
L 203.818837 91.848892 
L 204.275145 91.170598 
L 204.38155 91.031585 
L 204.555494 90.782042 
L 205.076472 90.080294 
L 206.628259 87.951609 
L 206.761493 87.779101 
L 206.881839 87.633389 
L 207.243708 87.167786 
L 207.889519 86.288515 
L 207.988891 86.152858 
L 209.775628 84.014118 
L 209.931052 83.838253 
L 210.031246 83.705953 
L 210.359761 83.317385 
L 210.500662 83.173358 
L 210.627525 83.020947 
L 210.744645 82.893661 
L 211.372026 82.196941 
L 211.49337 82.072999 
L 211.70716 81.838525 
L 211.862824 81.622478 
L 212.046323 81.4349 
L 212.188392 81.284161 
L 212.393178 81.048016 
L 212.542749 80.914031 
L 212.649444 80.78339 
L 212.789522 80.639363 
L 213.628095 79.721568 
L 213.814943 79.537332 
L 214.66507 78.704956 
L 214.825359 78.554216 
L 215.807005 77.612967 
L 215.924098 77.495737 
L 216.370881 77.023435 
L 216.490176 76.912904 
L 216.62703 76.765521 
L 216.899348 76.479125 
L 217.183888 76.221198 
L 219.929574 73.501296 
L 220.041801 73.367311 
L 220.25697 73.159635 
L 220.523479 72.856498 
L 220.694882 72.685661 
L 220.864566 72.516509 
L 221.239279 72.099485 
L 221.354272 71.977214 
L 221.600706 71.7193 
L 221.727262 71.600385 
L 221.93911 71.355857 
L 222.21349 71.06109 
L 222.432359 70.881896 
L 222.608203 70.680919 
L 223.440482 69.863599 
L 223.908638 69.371212 
L 224.075052 69.213773 
L 224.192318 69.113285 
L 224.387255 68.950832 
L 224.612344 68.738128 
L 225.274512 68.041407 
L 225.761733 67.545664 
L 225.951273 67.378183 
L 228.67948 64.623113 
L 228.833514 64.470703 
L 229.006316 64.271397 
L 229.243049 64.060365 
L 229.384981 63.939779 
L 229.660252 63.646684 
L 229.787901 63.507684 
L 229.932007 63.363644 
L 230.434879 62.86623 
L 230.811197 62.524569 
L 231.678722 61.760843 
L 231.828081 61.603417 
L 242.275395 52.623062 
L 242.54617 52.40533 
L 242.658107 52.314897 
L 243.920194 51.333453 
L 244.048685 51.241335 
L 244.594609 50.810912 
L 244.959662 50.547958 
L 245.077668 50.445798 
L 245.303068 50.271617 
L 245.436929 50.16443 
L 245.726418 49.923257 
L 245.939173 49.74405 
L 246.28842 49.512932 
L 246.597754 49.248306 
L 246.837353 49.072455 
L 246.950227 48.970281 
L 247.321121 48.709011 
L 247.435803 48.640347 
L 249.01877 47.509848 
L 249.52129 47.159817 
L 250.396112 46.576983 
L 250.53544 46.483181 
L 251.069336 46.144876 
L 251.591165 45.816614 
L 251.816257 45.669231 
L 252.318501 45.345983 
L 252.469982 45.252194 
L 252.824009 45.027776 
L 252.942225 44.935658 
L 253.276899 44.714583 
L 253.451198 44.590641 
L 253.769843 44.418145 
L 254.01858 44.279133 
L 254.321115 44.094898 
L 254.470691 44.001108 
L 254.703909 43.87048 
L 255.12662 43.636007 
L 255.296295 43.523791 
L 255.735533 43.28429 
L 255.929834 43.178774 
L 256.221499 43.021349 
L 256.492648 42.862239 
L 256.967446 42.632793 
L 257.323059 42.435159 
L 258.158937 41.981283 
L 259.621891 41.266136 
L 260.015559 41.105355 
L 260.402429 40.924475 
L 263.457569 39.636538 
L 263.866086 39.474085 
L 263.976897 39.440588 
L 264.572829 39.204444 
L 264.685102 39.16592 
L 266.176568 38.618254 
L 266.318137 38.589786 
L 266.8 38.415606 
L 267.210325 38.274922 
L 267.326447 38.239754 
L 267.763784 38.073945 
L 267.884415 38.047148 
L 268.787565 37.760752 
L 268.97485 37.710501 
L 270.027446 37.378896 
L 270.230657 37.332001 
L 272.337089 36.725714 
L 272.671054 36.65705 
L 273.31982 36.492912 
L 273.436754 36.471143 
L 282.190793 34.632197 
L 283.14427 34.499884 
L 294.327662 33.051178 
L 295.176982 32.905466 
L 296.287549 32.694434 
L 296.579913 32.629113 
L 297.327787 32.441534 
L 297.687947 32.322633 
L 298.514617 32.121656 
L 298.656522 32.076433 
L 299.145054 31.932393 
L 299.252119 31.897225 
L 299.803186 31.692892 
L 299.908139 31.640982 
L 300.278065 31.493599 
L 300.813714 31.228973 
L 300.928704 31.163652 
L 301.673244 30.765054 
L 302.288502 30.30615 
L 302.61263 30.019755 
L 302.794324 29.847246 
L 302.964963 29.691492 
L 303.103523 29.560864 
L 303.211627 29.43525 
L 303.336188 29.289538 
L 303.493283 29.093589 
L 303.621633 28.914381 
L 303.866835 28.582763 
L 304.002667 28.373415 
L 304.122724 28.175781 
L 304.514985 27.458963 
L 304.809589 26.944793 
L 304.929949 26.728746 
L 305.022376 26.574664 
L 305.744353 25.375501 
L 305.976325 25.033827 
L 306.152897 24.794339 
L 306.372267 24.576608 
L 306.944327 24.023914 
L 307.161023 23.869832 
L 307.304931 23.752602 
L 307.575619 23.549953 
L 307.889982 23.342264 
L 308.134145 23.184838 
L 308.261564 23.091049 
L 310.442586 22.21345 
L 314.141973 21.784699 
L 318.297995 21.754545 
L 318.297995 21.754545 
" clip-path="url(#pbbba6d0b84)" style="fill: none; stroke: #2ca02c; stroke-opacity: 0.95; stroke-width: 1.2; stroke-linecap: square"/>
   </g>
   <g id="line2d_34">
    <path d="M 122.474827 240.845455 
L 143.718631 240.721518 
L 148.779292 240.476995 
L 148.922296 240.465272 
L 150.643274 240.289416 
L 151.224509 240.239172 
L 153.969619 239.847265 
L 154.144665 239.817118 
L 154.887688 239.678109 
L 155.619655 239.517326 
L 156.198165 239.376642 
L 156.319077 239.339796 
L 157.345242 239.068476 
L 158.644575 238.617951 
L 158.782025 238.58278 
L 160.53777 237.809015 
L 160.676684 237.725274 
L 161.128906 237.4908 
L 161.31909 237.381938 
L 162.290841 236.792402 
L 162.684349 236.54453 
L 163.114396 236.263161 
L 163.26628 236.157648 
L 163.498485 236.00189 
L 164.438727 235.288419 
L 164.55414 235.201328 
L 164.930702 234.938383 
L 165.185692 234.73908 
L 166.378266 233.60188 
L 166.570653 233.404252 
L 167.150792 232.78457 
L 167.355156 232.551771 
L 169.962646 229.128449 
L 170.082272 228.927472 
L 170.356839 228.525516 
L 170.480653 228.346311 
L 170.809075 227.818744 
L 170.924961 227.611067 
L 171.246099 227.058379 
L 171.341934 226.900945 
L 171.537055 226.55091 
L 171.724229 226.220971 
L 171.912502 225.904431 
L 172.333965 225.157463 
L 172.523608 224.819152 
L 172.709215 224.457391 
L 173.49782 222.913211 
L 173.5676 222.745731 
L 173.693348 222.496182 
L 175.855274 217.528683 
L 176.017639 217.148499 
L 176.229441 216.584086 
L 176.349646 216.296019 
L 178.68946 209.536464 
L 178.843077 209.032346 
L 178.901894 208.848117 
L 179.025422 208.454534 
L 179.205702 207.866673 
L 179.326081 207.494866 
L 179.390417 207.302263 
L 179.515752 206.895281 
L 179.582372 206.670857 
L 179.793841 206.031077 
L 179.973837 205.434845 
L 182.329081 197.05742 
L 182.461988 196.536551 
L 182.510965 196.367396 
L 187.779738 173.476028 
L 187.956863 172.593401 
L 188.002196 172.404144 
L 188.047567 172.181391 
L 188.700984 169.019346 
L 188.755326 168.741322 
L 188.953742 167.771604 
L 188.98425 167.602452 
L 189.208379 166.512148 
L 189.306277 166.046545 
L 189.975348 162.701943 
L 192.439933 149.891284 
L 192.593583 149.020377 
L 193.589078 143.738011 
L 193.650831 143.438224 
L 193.818761 142.510373 
L 193.855574 142.285949 
L 199.364832 112.628322 
L 199.425411 112.335228 
L 200.070088 109.014079 
L 200.182178 108.43626 
L 203.110378 93.604104 
L 203.163222 93.357904 
L 204.291466 87.951609 
L 204.368172 87.578124 
L 205.025965 84.395974 
L 205.152629 83.794715 
L 205.26891 83.262119 
L 205.496996 82.190242 
L 205.628952 81.580612 
L 205.876615 80.443413 
L 206.096146 79.448571 
L 206.227433 78.833913 
L 206.442168 77.825671 
L 206.573094 77.22274 
L 206.918331 75.740525 
L 207.074636 75.090699 
L 207.29291 74.131037 
L 207.432489 73.491254 
L 207.475455 73.310375 
L 207.570683 72.900037 
L 207.88846 71.493198 
L 207.925134 71.344143 
L 208.671742 68.344544 
L 208.732491 68.076575 
L 208.859604 67.547336 
L 209.010928 66.92765 
L 209.512922 64.989887 
L 209.574747 64.787238 
L 209.903448 63.561278 
L 210.050953 63.04041 
L 210.158653 62.675295 
L 210.345185 62.040539 
L 210.402351 61.861331 
L 212.569465 54.47205 
L 212.688346 54.041628 
L 212.818538 53.634646 
L 213.016732 52.966394 
L 213.184459 52.475678 
L 213.291157 52.149088 
L 213.489592 51.544472 
L 213.630055 51.134147 
L 213.749933 50.777416 
L 213.826846 50.551314 
L 213.958686 50.147688 
L 215.378405 46.210197 
L 215.47535 45.980738 
L 215.737879 45.369437 
L 215.823521 45.141663 
L 215.978292 44.746408 
L 219.930105 36.481199 
L 220.016098 36.320417 
L 220.134542 36.117755 
L 220.517693 35.444476 
L 220.710637 35.12794 
L 220.911542 34.798006 
L 221.004313 34.653966 
L 221.318985 34.166594 
L 221.420003 33.999113 
L 221.739807 33.523467 
L 221.897784 33.302392 
L 222.028703 33.082989 
L 222.217063 32.804978 
L 222.764145 32.044608 
L 222.931745 31.790037 
L 223.053699 31.656052 
L 223.250163 31.39981 
L 223.427455 31.202176 
L 223.648619 30.945934 
L 223.865448 30.72653 
L 224.40231 30.108516 
L 224.58599 29.912567 
L 224.732277 29.76854 
L 225.038336 29.438593 
L 225.15442 29.309636 
L 225.86843 28.576063 
L 226.076508 28.388485 
L 226.431022 28.076977 
L 229.087194 25.996845 
L 229.323781 25.859517 
L 229.573842 25.712134 
L 229.819028 25.55638 
L 229.93617 25.482689 
L 230.72748 25.072351 
L 230.985869 24.926639 
L 231.113556 24.849605 
L 231.548729 24.645271 
L 231.678216 24.591678 
L 232.713595 24.18638 
L 232.871851 24.126087 
L 233.526372 23.846391 
L 233.834759 23.737532 
L 234.724789 23.452808 
L 235.224516 23.308768 
L 240.637069 22.297183 
L 250.8032 21.823209 
L 270.107158 21.754545 
L 270.107158 21.754545 
" clip-path="url(#pbbba6d0b84)" style="fill: none; stroke: #7ec7ee; stroke-opacity: 0.95; stroke-width: 1.2; stroke-linecap: square"/>
   </g>
   <g id="line2d_35">
    <path d="M 224.313745 251.8 
L 224.313745 10.8 
" clip-path="url(#pbbba6d0b84)" style="fill: none; stroke: #000000; stroke-opacity: 0.75; stroke-width: 0.8; stroke-linecap: square"/>
   </g>
   <g id="patch_3">
    <path d="M 49.25 251.8 
L 49.25 10.8 
" style="fill: none; stroke: #000000; stroke-width: 0.8; stroke-linejoin: miter; stroke-linecap: square"/>
   </g>
   <g id="patch_4">
    <path d="M 343.069898 251.8 
L 343.069898 10.8 
" style="fill: none; stroke: #000000; stroke-width: 0.8; stroke-linejoin: miter; stroke-linecap: square"/>
   </g>
   <g id="patch_5">
    <path d="M 49.25 251.8 
L 343.069898 251.8 
" style="fill: none; stroke: #000000; stroke-width: 0.8; stroke-linejoin: miter; stroke-linecap: square"/>
   </g>
   <g id="patch_6">
    <path d="M 49.25 10.8 
L 343.069898 10.8 
" style="fill: none; stroke: #000000; stroke-width: 0.8; stroke-linejoin: miter; stroke-linecap: square"/>
   </g>
   <g id="text_18">
    <!-- FRP vs Vanilla -->
    <g transform="translate(274.906468 220.57025) scale(0.09 -0.09)">
     <defs>
      <path id="DejaVuSans-46" d="M 628 4666 
L 3309 4666 
L 3309 4134 
L 1259 4134 
L 1259 2759 
L 3109 2759 
L 3109 2228 
L 1259 2228 
L 1259 0 
L 628 0 
L 628 4666 
z
" transform="scale(0.015625)"/>
      <path id="DejaVuSans-52" d="M 2841 2188 
Q 3044 2119 3236 1894 
Q 3428 1669 3622 1275 
L 4263 0 
L 3584 0 
L 2988 1197 
Q 2756 1666 2539 1819 
Q 2322 1972 1947 1972 
L 1259 1972 
L 1259 0 
L 628 0 
L 628 4666 
L 2053 4666 
Q 2853 4666 3247 4331 
Q 3641 3997 3641 3322 
Q 3641 2881 3436 2590 
Q 3231 2300 2841 2188 
z
M 1259 4147 
L 1259 2491 
L 2053 2491 
Q 2509 2491 2742 2702 
Q 2975 2913 2975 3322 
Q 2975 3731 2742 3939 
Q 2509 4147 2053 4147 
L 1259 4147 
z
" transform="scale(0.015625)"/>
      <path id="DejaVuSans-73" d="M 2834 3397 
L 2834 2853 
Q 2591 2978 2328 3040 
Q 2066 3103 1784 3103 
Q 1356 3103 1142 2972 
Q 928 2841 928 2578 
Q 928 2378 1081 2264 
Q 1234 2150 1697 2047 
L 1894 2003 
Q 2506 1872 2764 1633 
Q 3022 1394 3022 966 
Q 3022 478 2636 193 
Q 2250 -91 1575 -91 
Q 1294 -91 989 -36 
Q 684 19 347 128 
L 347 722 
Q 666 556 975 473 
Q 1284 391 1588 391 
Q 1994 391 2212 530 
Q 2431 669 2431 922 
Q 2431 1156 2273 1281 
Q 2116 1406 1581 1522 
L 1381 1569 
Q 847 1681 609 1914 
Q 372 2147 372 2553 
Q 372 3047 722 3315 
Q 1072 3584 1716 3584 
Q 2034 3584 2315 3537 
Q 2597 3491 2834 3397 
z
" transform="scale(0.015625)"/>
      <path id="DejaVuSans-56" d="M 1831 0 
L 50 4666 
L 709 4666 
L 2188 738 
L 3669 4666 
L 4325 4666 
L 2547 0 
L 1831 0 
z
" transform="scale(0.015625)"/>
      <path id="DejaVuSans-6e" d="M 3513 2113 
L 3513 0 
L 2938 0 
L 2938 2094 
Q 2938 2591 2744 2837 
Q 2550 3084 2163 3084 
Q 1697 3084 1428 2787 
Q 1159 2491 1159 1978 
L 1159 0 
L 581 0 
L 581 3500 
L 1159 3500 
L 1159 2956 
Q 1366 3272 1645 3428 
Q 1925 3584 2291 3584 
Q 2894 3584 3203 3211 
Q 3513 2838 3513 2113 
z
" transform="scale(0.015625)"/>
     </defs>
     <use xlink:href="#DejaVuSans-46"/>
     <use xlink:href="#DejaVuSans-52" transform="translate(57.519531 0)"/>
     <use xlink:href="#DejaVuSans-50" transform="translate(127.001953 0)"/>
     <use xlink:href="#DejaVuSans-20" transform="translate(187.304688 0)"/>
     <use xlink:href="#DejaVuSans-76" transform="translate(219.091797 0)"/>
     <use xlink:href="#DejaVuSans-73" transform="translate(278.271484 0)"/>
     <use xlink:href="#DejaVuSans-20" transform="translate(330.371094 0)"/>
     <use xlink:href="#DejaVuSans-56" transform="translate(362.158203 0)"/>
     <use xlink:href="#DejaVuSans-61" transform="translate(422.816406 0)"/>
     <use xlink:href="#DejaVuSans-6e" transform="translate(484.095703 0)"/>
     <use xlink:href="#DejaVuSans-69" transform="translate(547.474609 0)"/>
     <use xlink:href="#DejaVuSans-6c" transform="translate(575.257812 0)"/>
     <use xlink:href="#DejaVuSans-6c" transform="translate(603.041016 0)"/>
     <use xlink:href="#DejaVuSans-61" transform="translate(630.824219 0)"/>
    </g>
    <!-- K-S=0.21 *** -->
    <g transform="translate(279.33475 230.648281) scale(0.09 -0.09)">
     <defs>
      <path id="DejaVuSans-4b" d="M 628 4666 
L 1259 4666 
L 1259 2694 
L 3353 4666 
L 4166 4666 
L 1850 2491 
L 4331 0 
L 3500 0 
L 1259 2247 
L 1259 0 
L 628 0 
L 628 4666 
z
" transform="scale(0.015625)"/>
      <path id="DejaVuSans-2d" d="M 313 2009 
L 1997 2009 
L 1997 1497 
L 313 1497 
L 313 2009 
z
" transform="scale(0.015625)"/>
      <path id="DejaVuSans-53" d="M 3425 4513 
L 3425 3897 
Q 3066 4069 2747 4153 
Q 2428 4238 2131 4238 
Q 1616 4238 1336 4038 
Q 1056 3838 1056 3469 
Q 1056 3159 1242 3001 
Q 1428 2844 1947 2747 
L 2328 2669 
Q 3034 2534 3370 2195 
Q 3706 1856 3706 1288 
Q 3706 609 3251 259 
Q 2797 -91 1919 -91 
Q 1588 -91 1214 -16 
Q 841 59 441 206 
L 441 856 
Q 825 641 1194 531 
Q 1563 422 1919 422 
Q 2459 422 2753 634 
Q 3047 847 3047 1241 
Q 3047 1584 2836 1778 
Q 2625 1972 2144 2069 
L 1759 2144 
Q 1053 2284 737 2584 
Q 422 2884 422 3419 
Q 422 4038 858 4394 
Q 1294 4750 2059 4750 
Q 2388 4750 2728 4690 
Q 3069 4631 3425 4513 
z
" transform="scale(0.015625)"/>
      <path id="DejaVuSans-3d" d="M 678 2906 
L 4684 2906 
L 4684 2381 
L 678 2381 
L 678 2906 
z
M 678 1631 
L 4684 1631 
L 4684 1100 
L 678 1100 
L 678 1631 
z
" transform="scale(0.015625)"/>
      <path id="DejaVuSans-2a" d="M 3009 3897 
L 1888 3291 
L 3009 2681 
L 2828 2375 
L 1778 3009 
L 1778 1831 
L 1422 1831 
L 1422 3009 
L 372 2375 
L 191 2681 
L 1313 3291 
L 191 3897 
L 372 4206 
L 1422 3572 
L 1422 4750 
L 1778 4750 
L 1778 3572 
L 2828 4206 
L 3009 3897 
z
" transform="scale(0.015625)"/>
     </defs>
     <use xlink:href="#DejaVuSans-4b"/>
     <use xlink:href="#DejaVuSans-2d" transform="translate(55.076172 0)"/>
     <use xlink:href="#DejaVuSans-53" transform="translate(91.160156 0)"/>
     <use xlink:href="#DejaVuSans-3d" transform="translate(154.636719 0)"/>
     <use xlink:href="#DejaVuSans-30" transform="translate(238.425781 0)"/>
     <use xlink:href="#DejaVuSans-2e" transform="translate(302.048828 0)"/>
     <use xlink:href="#DejaVuSans-32" transform="translate(333.835938 0)"/>
     <use xlink:href="#DejaVuSans-31" transform="translate(397.458984 0)"/>
     <use xlink:href="#DejaVuSans-20" transform="translate(461.082031 0)"/>
     <use xlink:href="#DejaVuSans-2a" transform="translate(492.869141 0)"/>
     <use xlink:href="#DejaVuSans-2a" transform="translate(542.869141 0)"/>
     <use xlink:href="#DejaVuSans-2a" transform="translate(592.869141 0)"/>
    </g>
   </g>
   <g id="legend_1">
    <g id="patch_7">
     <path d="M 55.55 70.84125 
L 121.309062 70.84125 
Q 123.109062 70.84125 123.109062 69.04125 
L 123.109062 17.1 
Q 123.109062 15.3 121.309062 15.3 
L 55.55 15.3 
Q 53.75 15.3 53.75 17.1 
L 53.75 69.04125 
Q 53.75 70.84125 55.55 70.84125 
z
" style="fill: #ffffff; opacity: 0.8; stroke: #cccccc; stroke-linejoin: miter"/>
    </g>
    <g id="line2d_36">
     <path d="M 57.35 22.588594 
L 66.35 22.588594 
L 75.35 22.588594 
" style="fill: none; stroke: #f39c12; stroke-opacity: 0.95; stroke-width: 1.2; stroke-linecap: square"/>
    </g>
    <g id="text_19">
     <!-- FRP -->
     <g transform="translate(82.55 25.738594) scale(0.09 -0.09)">
      <use xlink:href="#DejaVuSans-46"/>
      <use xlink:href="#DejaVuSans-52" transform="translate(57.519531 0)"/>
      <use xlink:href="#DejaVuSans-50" transform="translate(127.001953 0)"/>
     </g>
    </g>
    <g id="line2d_37">
     <path d="M 57.35 35.798906 
L 66.35 35.798906 
L 75.35 35.798906 
" style="fill: none; stroke: #d4b000; stroke-opacity: 0.95; stroke-width: 1.2; stroke-linecap: square"/>
    </g>
    <g id="text_20">
     <!-- MOp -->
     <g transform="translate(82.55 38.948906) scale(0.09 -0.09)">
      <defs>
       <path id="DejaVuSans-4d" d="M 628 4666 
L 1569 4666 
L 2759 1491 
L 3956 4666 
L 4897 4666 
L 4897 0 
L 4281 0 
L 4281 4097 
L 3078 897 
L 2444 897 
L 1241 4097 
L 1241 0 
L 628 0 
L 628 4666 
z
" transform="scale(0.015625)"/>
       <path id="DejaVuSans-4f" d="M 2522 4238 
Q 1834 4238 1429 3725 
Q 1025 3213 1025 2328 
Q 1025 1447 1429 934 
Q 1834 422 2522 422 
Q 3209 422 3611 934 
Q 4013 1447 4013 2328 
Q 4013 3213 3611 3725 
Q 3209 4238 2522 4238 
z
M 2522 4750 
Q 3503 4750 4090 4092 
Q 4678 3434 4678 2328 
Q 4678 1225 4090 567 
Q 3503 -91 2522 -91 
Q 1538 -91 948 565 
Q 359 1222 359 2328 
Q 359 3434 948 4092 
Q 1538 4750 2522 4750 
z
" transform="scale(0.015625)"/>
       <path id="DejaVuSans-70" d="M 1159 525 
L 1159 -1331 
L 581 -1331 
L 581 3500 
L 1159 3500 
L 1159 2969 
Q 1341 3281 1617 3432 
Q 1894 3584 2278 3584 
Q 2916 3584 3314 3078 
Q 3713 2572 3713 1747 
Q 3713 922 3314 415 
Q 2916 -91 2278 -91 
Q 1894 -91 1617 61 
Q 1341 213 1159 525 
z
M 3116 1747 
Q 3116 2381 2855 2742 
Q 2594 3103 2138 3103 
Q 1681 3103 1420 2742 
Q 1159 2381 1159 1747 
Q 1159 1113 1420 752 
Q 1681 391 2138 391 
Q 2594 391 2855 752 
Q 3116 1113 3116 1747 
z
" transform="scale(0.015625)"/>
      </defs>
      <use xlink:href="#DejaVuSans-4d"/>
      <use xlink:href="#DejaVuSans-4f" transform="translate(86.279297 0)"/>
      <use xlink:href="#DejaVuSans-70" transform="translate(164.990234 0)"/>
     </g>
    </g>
    <g id="line2d_38">
     <path d="M 57.35 49.009219 
L 66.35 49.009219 
L 75.35 49.009219 
" style="fill: none; stroke: #2ca02c; stroke-opacity: 0.95; stroke-width: 1.2; stroke-linecap: square"/>
    </g>
    <g id="text_21">
     <!-- Average -->
     <g transform="translate(82.55 52.159219) scale(0.09 -0.09)">
      <defs>
       <path id="DejaVuSans-41" d="M 2188 4044 
L 1331 1722 
L 3047 1722 
L 2188 4044 
z
M 1831 4666 
L 2547 4666 
L 4325 0 
L 3669 0 
L 3244 1197 
L 1141 1197 
L 716 0 
L 50 0 
L 1831 4666 
z
" transform="scale(0.015625)"/>
      </defs>
      <use xlink:href="#DejaVuSans-41"/>
      <use xlink:href="#DejaVuSans-76" transform="translate(62.533203 0)"/>
      <use xlink:href="#DejaVuSans-65" transform="translate(121.712891 0)"/>
      <use xlink:href="#DejaVuSans-72" transform="translate(183.236328 0)"/>
      <use xlink:href="#DejaVuSans-61" transform="translate(224.349609 0)"/>
      <use xlink:href="#DejaVuSans-67" transform="translate(285.628906 0)"/>
      <use xlink:href="#DejaVuSans-65" transform="translate(349.105469 0)"/>
     </g>
    </g>
    <g id="line2d_39">
     <path d="M 57.35 62.219531 
L 66.35 62.219531 
L 75.35 62.219531 
" style="fill: none; stroke: #7ec7ee; stroke-opacity: 0.95; stroke-width: 1.2; stroke-linecap: square"/>
    </g>
    <g id="text_22">
     <!-- Vanilla -->
     <g transform="translate(82.55 65.369531) scale(0.09 -0.09)">
      <use xlink:href="#DejaVuSans-56"/>
      <use xlink:href="#DejaVuSans-61" transform="translate(60.658203 0)"/>
      <use xlink:href="#DejaVuSans-6e" transform="translate(121.9375 0)"/>
      <use xlink:href="#DejaVuSans-69" transform="translate(185.316406 0)"/>
      <use xlink:href="#DejaVuSans-6c" transform="translate(213.099609 0)"/>
      <use xlink:href="#DejaVuSans-6c" transform="translate(240.882812 0)"/>
      <use xlink:href="#DejaVuSans-61" transform="translate(268.666016 0)"/>
     </g>
    </g>
   </g>
  </g>
 </g>
 <defs>
  <clipPath id="pbbba6d0b84">
   <rect x="49.25" y="10.8" width="293.819898" height="241"/>
  </clipPath>
 </defs>
</svg>
